<svg width="177" height="175" viewBox="0 0 177 175" fill="none" xmlns="http://www.w3.org/2000/svg">
<path d="M88.6539 0C113.543 0 134.751 8.91682 152.078 26.7306C168.224 43.6706 176.307 63.7682 176.307 86.9837C176.307 111.43 168.064 131.866 151.578 148.806C134.251 166.282 113.043 175 88.1537 175C63.2642 175 41.5559 166.103 24.2293 148.289C8.24315 131.349 0 111.093 0 86.9837C0 62.8745 8.24315 43.6706 24.2293 26.7306C41.2157 8.91682 62.764 0 88.6739 0" fill="#DEDDD5"/>
<path d="M67.2664 29.1533C84.0528 29.1533 98.1782 35.1707 109.643 47.0664C120.447 58.4259 125.929 71.8706 125.929 87.3609C125.929 103.705 120.447 117.329 109.302 128.688C97.8381 140.405 83.7127 146.264 66.9263 146.264C50.1399 146.264 35.8544 140.226 24.2299 128.35C13.4258 116.991 7.94373 103.387 7.94373 87.3807C7.94373 71.3742 13.4258 58.4458 24.2299 47.0863C35.5343 35.2104 49.9798 29.1732 67.2664 29.1732" fill="#C6C5BA"/>
<path d="M44.9373 58.5453C53.3405 58.5453 60.4032 61.6632 66.1254 67.5813C71.5074 73.1419 74.1884 79.755 74.1884 87.5597C74.1884 95.3644 71.5074 102.514 65.9453 108.074C60.2231 113.992 53.1604 116.932 44.7572 116.932C36.354 116.932 29.2913 113.973 23.409 107.896C18.027 102.335 15.3459 95.563 15.3459 87.5597C15.3459 79.5564 18.027 73.1419 23.409 67.5813C29.1312 61.6632 36.354 58.5453 44.9172 58.5453" fill="#D20A11"/>
<path d="M45.658 39.3609C48.199 39.3609 50.1798 40.1156 51.8004 41.8235C53.421 43.5314 54.3213 45.6166 54.3213 47.8806C54.3213 50.1445 53.421 52.2297 51.8004 53.9376C50.1798 55.6455 48.179 56.4002 45.658 56.4002C43.3171 56.4002 41.1363 55.6455 39.5157 53.739C37.8951 52.2297 37.1548 50.1445 37.1548 47.8607C37.1548 45.5769 37.8751 43.5115 39.5157 41.8036C41.1363 40.0957 43.3171 39.3411 45.658 39.3411" fill="#D20A11"/>
</svg>
