<svg width="149" height="60" viewBox="0 0 149 60" fill="none" xmlns="http://www.w3.org/2000/svg">
<path d="M66.3511 30.5912V21.6455H68.3683V30.5912H66.3511Z" fill="#1D1D1B"/>
<path d="M70.3052 30.5912V24.0457H72.2361V25.0744C72.6802 24.2845 73.3588 23.8865 74.2779 23.8865C74.9133 23.8865 75.413 24.0947 75.7769 24.505C76.1594 24.9336 76.3506 25.5581 76.3506 26.3664V30.5974H74.4198V26.6174C74.4198 25.7908 74.0929 25.3805 73.439 25.3805C73.0627 25.3805 72.7666 25.503 72.5507 25.7479C72.3409 25.9806 72.2422 26.3112 72.2422 26.7399V30.5974H70.3114L70.3052 30.5912Z" fill="#1D1D1B"/>
<path d="M82.1369 25.8703C81.6249 25.4846 81.0451 25.2887 80.4035 25.2887C79.836 25.2887 79.5522 25.4601 79.5522 25.803C79.5522 25.9928 79.6448 26.1398 79.8298 26.2377C79.9902 26.3235 80.3295 26.4092 80.8415 26.501C81.5324 26.6235 82.0382 26.7827 82.3714 26.9786C82.9389 27.3215 83.2226 27.8481 83.2226 28.5645C83.2226 29.4768 82.7908 30.1075 81.9334 30.4626C81.4892 30.6463 80.9525 30.7381 80.3233 30.7381C79.5091 30.7381 78.8182 30.6034 78.2506 30.334C77.973 30.2054 77.6954 30.0217 77.4178 29.7829L78.3123 28.54C78.8798 29.0666 79.5337 29.3298 80.274 29.3298C81.0142 29.3298 81.3658 29.1217 81.3658 28.7053C81.3658 28.5155 81.2857 28.3808 81.1191 28.2951C81.0019 28.2338 80.6194 28.142 79.9717 28.0195C79.3857 27.9032 78.9292 27.744 78.5961 27.5419C78.0286 27.1929 77.7448 26.6663 77.7448 25.9561C77.7448 25.1968 78.0656 24.6396 78.7009 24.2722C79.1574 24.009 79.7373 23.8804 80.4405 23.8804C81.446 23.8804 82.3035 24.1375 83.0191 24.6519L82.1369 25.8703Z" fill="#1D1D1B"/>
<path d="M84.006 25.5336V24.0396H84.9128V22.7231L86.8437 22.0557V24.0335H88.2255V25.5275H86.8437V28.4175C86.8437 28.8951 87.0287 29.1339 87.3927 29.1339C87.6148 29.1339 87.8307 29.0666 88.0589 28.9257L88.5277 30.2116C88.0897 30.5545 87.5654 30.7259 86.9547 30.7259C86.2761 30.7259 85.7518 30.53 85.394 30.132C85.0732 29.7768 84.9128 29.287 84.9128 28.6502V25.5275H84.006V25.5336Z" fill="#1D1D1B"/>
<path d="M90.5758 21.076C90.8904 21.076 91.1618 21.1863 91.3777 21.4006C91.5875 21.6026 91.6862 21.8475 91.6862 22.1292C91.6862 22.4109 91.5813 22.6742 91.3716 22.8762C91.1495 23.0905 90.8842 23.1946 90.5696 23.1946C90.255 23.1946 89.9774 23.0844 89.7615 22.8701C89.5579 22.668 89.4531 22.417 89.4531 22.1292C89.4531 21.8414 89.5579 21.6026 89.7615 21.4006C89.9774 21.1863 90.2488 21.076 90.5758 21.076ZM89.6011 30.5912V24.0457H91.5319V30.5912H89.6011Z" fill="#1D1D1B"/>
<path d="M92.6546 25.5336V24.0396H93.5614V22.7231L95.4922 22.0557V24.0335H96.874V25.5275H95.4922V28.4175C95.4922 28.8951 95.6773 29.1339 96.0413 29.1339C96.2633 29.1339 96.4854 29.0666 96.7075 28.9257L97.1763 30.2116C96.7383 30.5545 96.214 30.7259 95.6033 30.7259C94.9247 30.7259 94.4004 30.53 94.0426 30.132C93.7218 29.7768 93.5614 29.287 93.5614 28.6502V25.5275H92.6546V25.5336Z" fill="#1D1D1B"/>
<path d="M102.155 29.5871C101.741 30.3524 101.081 30.7321 100.181 30.7321C99.5081 30.7321 98.99 30.4994 98.626 30.0279C98.2991 29.6054 98.1325 29.0115 98.1325 28.2461V24.0396H100.063V28.0196C100.063 28.491 100.156 28.8156 100.341 29.0054C100.483 29.1523 100.693 29.2258 100.964 29.2258C101.34 29.2258 101.63 29.1033 101.84 28.8645C102.05 28.6257 102.155 28.3012 102.155 27.8849V24.0396H104.085V30.5851H102.155V29.5809V29.5871Z" fill="#1D1D1B"/>
<path d="M105.22 25.5336V24.0396H106.127V22.7231L108.058 22.0557V24.0335H109.44V25.5275H108.058V28.4175C108.058 28.8951 108.243 29.1339 108.607 29.1339C108.829 29.1339 109.051 29.0666 109.273 28.9257L109.736 30.2116C109.298 30.5545 108.774 30.7259 108.163 30.7259C107.484 30.7259 106.96 30.53 106.602 30.132C106.281 29.7768 106.121 29.287 106.121 28.6502V25.5275H105.214L105.22 25.5336Z" fill="#1D1D1B"/>
<path d="M113.746 23.8804C114.702 23.8804 115.498 24.1926 116.127 24.8233C116.762 25.4601 117.083 26.2806 117.083 27.2909C117.083 28.3012 116.762 29.1523 116.114 29.7891C115.479 30.4136 114.677 30.732 113.702 30.732C112.728 30.732 111.901 30.4197 111.278 29.7891C110.649 29.1645 110.334 28.3502 110.334 27.3521C110.334 26.3541 110.661 25.4724 111.321 24.8172C111.944 24.1926 112.752 23.8804 113.746 23.8804ZM113.746 25.3744C112.783 25.3744 112.302 26.0234 112.302 27.3154C112.302 28.0746 112.481 28.6135 112.839 28.9319C113.067 29.1339 113.351 29.238 113.702 29.238C114.214 29.238 114.591 29.0359 114.831 28.6257C115.029 28.2951 115.127 27.8542 115.127 27.297C115.127 26.7398 115.029 26.299 114.837 25.9806C114.597 25.5764 114.233 25.3744 113.746 25.3744Z" fill="#1D1D1B"/>
<path d="M66.3696 42.0718V33.1261H70.3299C71.4279 33.1261 72.2546 33.4139 72.7912 33.9894C73.2107 34.4303 73.4205 34.9936 73.4205 35.6855C73.4205 36.3223 73.2539 36.8428 72.927 37.2346C72.7296 37.4673 72.489 37.6449 72.2114 37.7796C72.1003 37.8286 71.9338 37.8837 71.7179 37.951C72.1188 38.0796 72.4211 38.2572 72.6185 38.4715C72.7604 38.6246 72.8714 38.8082 72.964 39.0287C73.0195 39.1573 73.0812 39.3961 73.1614 39.7389C73.439 40.9574 73.6857 41.7167 73.9016 42.0289V42.0779H71.8351C71.6192 41.6922 71.3971 40.9758 71.1627 39.9288C71.0578 39.4512 70.8913 39.1144 70.663 38.9246C70.4471 38.747 70.1448 38.6552 69.7377 38.6552H68.3682V42.0779H66.3696V42.0718ZM68.3682 37.1612H70.0276C70.4965 37.1612 70.8542 37.0509 71.101 36.8305C71.3416 36.6162 71.4588 36.3101 71.4588 35.9121C71.4588 35.0977 71.027 34.6936 70.1695 34.6936H68.3682V37.1612Z" fill="#1D1D1B"/>
<path d="M78.1457 35.3671C79.1019 35.3671 79.8976 35.6794 80.533 36.3101C81.1684 36.9469 81.4892 37.7673 81.4892 38.7776C81.4892 39.7879 81.1684 40.639 80.5207 41.2758C79.8853 41.9065 79.0833 42.2188 78.1087 42.2188C77.134 42.2188 76.3074 41.9065 75.6844 41.2758C75.0551 40.6513 74.7405 39.843 74.7405 38.8389C74.7405 37.8347 75.0675 36.9591 75.7275 36.3039C76.3506 35.6794 77.1587 35.3671 78.1519 35.3671H78.1457ZM78.1457 36.8611C77.1834 36.8611 76.7022 37.5102 76.7022 38.8021C76.7022 39.5614 76.8811 40.1002 77.2389 40.4186C77.4671 40.6207 77.7509 40.7248 78.1025 40.7248C78.6145 40.7248 78.9908 40.5227 79.2314 40.1125C79.4288 39.7818 79.5275 39.341 79.5275 38.7838C79.5275 38.2266 79.4288 37.7857 79.2376 37.4673C78.997 37.0632 78.633 36.8611 78.1457 36.8611Z" fill="#1D1D1B"/>
<path d="M84.7339 36.5182C85.2274 35.7529 85.8998 35.3671 86.7449 35.3671C87.4914 35.3671 88.1082 35.6427 88.5832 36.1876C89.1508 36.8305 89.4345 37.6939 89.4345 38.7838C89.4345 40.0267 89.1014 40.9574 88.4352 41.5758C87.9725 42.0045 87.3988 42.2188 86.7079 42.2188C85.8135 42.2188 85.1534 41.833 84.7278 41.0615V42.0779H82.7969V32.6485H84.7278V36.5182H84.7339ZM86.1281 36.8611C85.6037 36.8611 85.2213 37.0754 84.9745 37.504C84.7833 37.8286 84.6846 38.2694 84.6846 38.8144C84.6846 39.5491 84.8573 40.0818 85.2027 40.4002C85.4372 40.6145 85.7333 40.7247 86.0972 40.7247C87.0164 40.7247 87.4729 40.088 87.4729 38.8144C87.4729 38.2388 87.3742 37.7857 87.1829 37.4673C86.9423 37.0632 86.5845 36.8611 86.1219 36.8611H86.1281Z" fill="#1D1D1B"/>
<path d="M96.7322 40.737C96.1215 41.7228 95.1592 42.2127 93.8514 42.2127C92.8397 42.2127 92.0131 41.9004 91.3777 41.2697C90.7547 40.6574 90.4401 39.8492 90.4401 38.8511C90.4401 37.7919 90.767 36.9346 91.4209 36.2856C92.0439 35.6733 92.8212 35.361 93.765 35.361C94.7088 35.361 95.4984 35.6733 96.0536 36.2917C96.5903 36.8857 96.8556 37.7123 96.8556 38.7654V39.2859H92.3771C92.4202 39.5553 92.4634 39.7696 92.5128 39.9104C92.6238 40.2166 92.8212 40.4492 93.1111 40.6023C93.3209 40.7125 93.58 40.7676 93.8884 40.7676C94.2832 40.7676 94.604 40.6635 94.8569 40.4492C94.9864 40.3452 95.1098 40.1921 95.2332 39.9961L96.7384 40.7431L96.7322 40.737ZM94.9803 38.1164C94.9371 37.7245 94.8507 37.4306 94.7212 37.2285C94.5238 36.9285 94.203 36.7754 93.7589 36.7754C93.3147 36.7754 92.9693 36.9346 92.7348 37.2592C92.593 37.4551 92.4819 37.7429 92.4141 38.1164H94.9741H94.9803Z" fill="#1D1D1B"/>
<path d="M98.188 42.0718V35.5263H100.119V36.6407C100.538 35.8019 101.106 35.3855 101.821 35.3855C102.173 35.3855 102.488 35.4773 102.778 35.6549L102.296 37.3816C102.05 37.2285 101.784 37.155 101.494 37.155C101.118 37.155 100.804 37.2775 100.557 37.5224C100.261 37.8163 100.113 38.2327 100.113 38.7838V42.0779H98.1818L98.188 42.0718Z" fill="#1D1D1B"/>
<path d="M103.425 37.0203V35.5263H104.332V34.2099L106.263 33.5425V35.5202H107.645V37.0142H106.263V39.9043C106.263 40.3819 106.448 40.6207 106.812 40.6207C107.034 40.6207 107.25 40.5533 107.478 40.4125L107.947 41.6983C107.509 42.0412 106.985 42.2127 106.374 42.2127C105.695 42.2127 105.171 42.0167 104.813 41.6187C104.492 41.2636 104.332 40.7676 104.332 40.137V37.0142H103.425V37.0203Z" fill="#1D1D1B"/>
<path d="M113.061 42.0718V33.1261H117.132C118.224 33.1261 119.026 33.3894 119.532 33.9221C119.902 34.3078 120.087 34.8344 120.087 35.4957C120.087 36.0774 119.927 36.5427 119.612 36.8856C119.433 37.0754 119.168 37.253 118.81 37.4183C119.267 37.5775 119.612 37.7735 119.846 38C120.229 38.3735 120.42 38.894 120.42 39.5675C120.42 40.3574 120.173 40.9635 119.68 41.386C119.143 41.8453 118.341 42.0779 117.274 42.0779H113.067L113.061 42.0718ZM115.041 36.7448H117.021C117.761 36.7448 118.138 36.3958 118.138 35.6916C118.138 34.9875 117.737 34.6507 116.935 34.6507H115.047V36.7387L115.041 36.7448ZM115.041 40.5411H117.12C117.576 40.5411 117.916 40.4125 118.144 40.1614C118.329 39.9594 118.422 39.6838 118.422 39.341C118.422 38.5572 117.965 38.1653 117.052 38.1653H115.041V40.5349V40.5411Z" fill="#1D1D1B"/>
<path d="M124.911 35.3671C125.867 35.3671 126.663 35.6794 127.292 36.3101C127.928 36.9469 128.248 37.7673 128.248 38.7776C128.248 39.7879 127.928 40.639 127.28 41.2758C126.644 41.9065 125.842 42.2188 124.868 42.2188C123.893 42.2188 123.067 41.9065 122.444 41.2758C121.814 40.6513 121.5 39.843 121.5 38.8389C121.5 37.8347 121.827 36.9591 122.487 36.3039C123.11 35.6794 123.918 35.3671 124.911 35.3671ZM124.911 36.8611C123.949 36.8611 123.468 37.5102 123.468 38.8021C123.468 39.5614 123.646 40.1002 124.004 40.4186C124.232 40.6207 124.516 40.7248 124.868 40.7248C125.38 40.7248 125.756 40.5227 125.997 40.1125C126.194 39.7818 126.293 39.341 126.293 38.7838C126.293 38.2266 126.194 37.7857 126.003 37.4673C125.762 37.0632 125.398 36.8611 124.911 36.8611Z" fill="#1D1D1B"/>
<path d="M133.683 37.351C133.171 36.9653 132.591 36.7693 131.95 36.7693C131.382 36.7693 131.098 36.9408 131.098 37.2836C131.098 37.4735 131.191 37.6204 131.376 37.7184C131.536 37.8041 131.876 37.8898 132.388 37.9817C133.072 38.1041 133.584 38.2633 133.917 38.4593C134.485 38.8022 134.769 39.3287 134.769 40.0451C134.769 40.9574 134.337 41.5881 133.479 41.9433C133.035 42.1269 132.499 42.2188 131.869 42.2188C131.055 42.2188 130.364 42.0841 129.797 41.8147C129.519 41.6861 129.248 41.5024 128.964 41.2636L129.858 40.0206C130.432 40.5472 131.086 40.8105 131.82 40.8105C132.554 40.8105 132.906 40.6023 132.906 40.186C132.906 39.9961 132.826 39.8614 132.659 39.7757C132.542 39.7145 132.159 39.6226 131.512 39.5002C130.926 39.3838 130.469 39.2246 130.142 39.0226C129.575 38.6736 129.291 38.147 129.291 37.4367C129.291 36.6775 129.612 36.1203 130.247 35.7529C130.703 35.4896 131.283 35.361 131.987 35.361C132.992 35.361 133.85 35.6182 134.565 36.1325L133.683 37.351Z" fill="#1D1D1B"/>
<path d="M141.857 40.4615C141.289 41.631 140.333 42.2188 138.988 42.2188C138.013 42.2188 137.224 41.9187 136.632 41.3126C136.021 40.7003 135.719 39.8798 135.719 38.845C135.719 37.8102 136.039 36.9101 136.681 36.2672C137.279 35.6672 138.044 35.3671 138.963 35.3671C140.259 35.3671 141.196 35.9488 141.783 37.1061L140.179 37.8469C140.061 37.5714 139.944 37.3632 139.833 37.2285C139.63 36.9836 139.364 36.8611 139.025 36.8611C138.525 36.8611 138.161 37.0693 137.939 37.4918C137.76 37.8286 137.674 38.2633 137.674 38.796C137.674 40.0818 138.137 40.7248 139.056 40.7248C139.432 40.7248 139.741 40.5962 139.981 40.3329C140.105 40.1921 140.222 39.99 140.333 39.7206L141.857 40.4615Z" fill="#1D1D1B"/>
<path d="M142.955 42.0718V32.6424H144.885V36.5489C145.33 35.759 146.008 35.361 146.927 35.361C147.698 35.361 148.26 35.6549 148.624 36.2427C148.87 36.653 149 37.1857 149 37.8347V42.0657H147.069V38.0857C147.069 37.2653 146.742 36.8489 146.082 36.8489C145.669 36.8489 145.354 36.9959 145.144 37.2836C144.972 37.5224 144.885 37.8286 144.885 38.2082V42.0657H142.955V42.0718Z" fill="#1D1D1B"/>
<path d="M34.5697 6.04407C42.2436 6.04407 48.7825 8.7933 54.1246 14.2856C59.1028 19.5086 61.595 25.705 61.595 32.8628C61.595 40.4003 59.0535 46.7008 53.9704 51.9238C48.6283 57.312 42.0894 60 34.4155 60C26.7416 60 20.0485 57.2569 14.7063 51.7646C9.77749 46.5416 7.23596 40.2962 7.23596 32.8628C7.23596 25.4295 9.77749 19.5086 14.7063 14.2856C19.9436 8.7933 26.5873 6.04407 34.5759 6.04407" fill="#DEDDD5"/>
<path d="M9.26545 53.7851C9.2346 53.9198 9.22843 54.0362 9.24077 54.1341C9.25928 54.3117 9.33947 54.477 9.46902 54.6362C9.74044 54.9485 9.99953 54.9975 10.2463 54.7893C10.3635 54.6913 10.419 54.575 10.4128 54.4464C10.4067 54.3301 10.3326 54.1341 10.2031 53.8586C10.0921 53.6382 10.0242 53.4729 9.99336 53.3626C9.88849 53.0075 9.96252 52.7258 10.2093 52.5115C10.419 52.334 10.6534 52.2727 10.9187 52.3401C11.1531 52.3952 11.369 52.536 11.5664 52.7626C11.9118 53.1606 12.0167 53.6014 11.8748 54.0913L11.5726 54.0178C11.6219 53.8402 11.6466 53.6933 11.6466 53.5831C11.6342 53.3688 11.5417 53.1606 11.3628 52.9585C11.2271 52.8054 11.0914 52.7014 10.9557 52.6585C10.7706 52.5973 10.6041 52.6279 10.4498 52.7626C10.3203 52.8728 10.2648 53.0136 10.2833 53.179C10.3018 53.3075 10.3758 53.5096 10.5115 53.7851C10.6472 54.0607 10.7213 54.2688 10.7336 54.4097C10.7583 54.6668 10.6719 54.8811 10.4807 55.0465C10.2586 55.2363 10.0119 55.2853 9.75278 55.1934C9.58005 55.1322 9.4135 55.0097 9.25928 54.8322C9.06805 54.6117 8.96318 54.3852 8.9385 54.1525C8.92617 54.0362 8.9385 53.9015 8.96935 53.7545L9.27162 53.7974L9.26545 53.7851Z" fill="#1D1D1B"/>
<path d="M7.06939 52.0462C6.86583 51.7645 6.79797 51.4523 6.85966 51.1094C6.93368 50.7053 7.16809 50.3624 7.57523 50.0807C7.98237 49.7991 8.38951 49.6888 8.79664 49.7623C9.14209 49.8235 9.41352 49.995 9.62326 50.2889C9.82683 50.5767 9.90085 50.8951 9.84533 51.2318C9.77131 51.636 9.53073 51.9788 9.12359 52.2666C8.71645 52.5483 8.30931 52.6585 7.90218 52.585C7.56289 52.5299 7.2853 52.3462 7.07556 52.0523L7.06939 52.0462ZM7.29764 51.887C7.48887 52.1564 7.74179 52.2911 8.06256 52.2911C8.34016 52.2911 8.63009 52.1931 8.92619 51.985C9.30248 51.7217 9.51222 51.4278 9.56157 51.0971C9.59241 50.8645 9.53689 50.6502 9.39501 50.4481C9.20995 50.1848 8.95703 50.0501 8.64243 50.044C8.35866 50.044 8.06873 50.1419 7.77263 50.3501C7.45186 50.5706 7.25446 50.8216 7.16809 51.1094C7.0879 51.3849 7.13108 51.6482 7.30381 51.887H7.29764Z" fill="#1D1D1B"/>
<path d="M5.87268 49.2541C5.46554 49.2419 5.17561 49.0704 5.00288 48.7398C4.89184 48.5193 4.861 48.3112 4.91652 48.1091C4.95353 47.9805 5.02756 47.8458 5.15093 47.7111C4.70061 47.7111 4.37984 47.5213 4.18861 47.1539C4.05906 46.9029 4.04056 46.6641 4.13309 46.4314C4.22562 46.1926 4.44153 45.9844 4.77464 45.8191L6.48955 44.9557L6.6376 45.2497L4.90418 46.1252C4.41685 46.3702 4.2688 46.6886 4.47237 47.0804C4.57107 47.2764 4.71912 47.405 4.91652 47.4662C5.14476 47.5397 5.38535 47.5029 5.65677 47.3743L7.30383 46.5477L7.45188 46.8416L5.71846 47.7111C5.23113 47.956 5.08308 48.2744 5.28665 48.6663C5.38535 48.8622 5.53339 48.9908 5.73079 49.052C5.95904 49.1255 6.20579 49.0949 6.47105 48.9602L8.11193 48.1336L8.25998 48.4275L5.57041 49.7807L5.42236 49.4868L5.86651 49.2663L5.87268 49.2541Z" fill="#1D1D1B"/>
<path d="M2.84377 43.7496C2.73273 43.4189 2.75741 43.1005 2.91163 42.7883C3.09669 42.4209 3.42364 42.1576 3.89246 42.0045C4.36129 41.8514 4.78693 41.8637 5.15705 42.0474C5.46549 42.2004 5.6814 42.4515 5.79244 42.7883C5.90347 43.125 5.88497 43.4434 5.73075 43.7557C5.54569 44.1231 5.21874 44.3864 4.74375 44.5394C4.27492 44.6925 3.85545 44.6803 3.48532 44.4966C3.17689 44.3435 2.96098 44.0925 2.84377 43.7496ZM3.10903 43.6638C3.2139 43.9761 3.41747 44.1782 3.71973 44.27C3.98499 44.3496 4.29343 44.3374 4.63271 44.221C5.06452 44.0802 5.35445 43.8537 5.49634 43.5475C5.59504 43.3393 5.6012 43.1128 5.52718 42.8801C5.42231 42.5739 5.22491 42.3719 4.92264 42.28C4.65122 42.1943 4.34895 42.2127 4.0035 42.3229C3.63337 42.4454 3.36812 42.6291 3.20773 42.874C3.04734 43.1189 3.0165 43.3761 3.10903 43.6577V43.6638Z" fill="#1D1D1B"/>
<path d="M2.43666 39.5124C2.34413 39.6165 2.28244 39.7145 2.24543 39.8063C2.17757 39.9717 2.16524 40.1554 2.20842 40.3574C2.29478 40.7615 2.49835 40.9269 2.81912 40.8595C2.96717 40.8289 3.07204 40.7554 3.12756 40.6391C3.17691 40.535 3.20776 40.3268 3.22626 40.0207C3.2386 39.7757 3.25711 39.5982 3.28178 39.4879C3.36197 39.1267 3.55937 38.9124 3.88015 38.845C4.15157 38.7899 4.38599 38.845 4.58956 39.0287C4.76845 39.1879 4.89182 39.4145 4.95351 39.7084C5.06455 40.2227 4.94117 40.6574 4.58956 41.0187L4.35514 40.8105C4.48469 40.6758 4.57722 40.5595 4.62657 40.4615C4.7191 40.2717 4.73761 40.0451 4.68209 39.7757C4.63891 39.5798 4.57105 39.4267 4.47235 39.3165C4.34281 39.1757 4.17625 39.1206 3.97885 39.1634C3.81229 39.2002 3.69509 39.292 3.6334 39.4512C3.58405 39.5737 3.55321 39.788 3.54087 40.0941C3.52853 40.4003 3.49152 40.6207 3.436 40.7493C3.33113 40.9881 3.15841 41.135 2.91166 41.1901C2.62172 41.2514 2.38731 41.1779 2.20225 40.9697C2.07887 40.835 1.99251 40.6452 1.94316 40.4186C1.88147 40.137 1.89381 39.8859 1.99251 39.6655C2.03569 39.5553 2.10972 39.4451 2.20842 39.3349L2.449 39.5186L2.43666 39.5124Z" fill="#1D1D1B"/>
<path d="M4.35514 36.3958L0.0246744 36.6958L0 36.3713L1.85063 36.2427C1.45583 36.0652 1.23992 35.759 1.20907 35.3243C1.1844 35.0243 1.26459 34.7855 1.43732 34.614C1.61621 34.4364 1.88764 34.3324 2.25776 34.3079L4.18858 34.1732L4.21326 34.4977L2.25776 34.6324C1.72108 34.6691 1.46816 34.914 1.49901 35.3733C1.51751 35.6366 1.61621 35.8447 1.79511 36.0039C1.96783 36.157 2.18991 36.2244 2.46133 36.206L4.31813 36.0774L4.3428 36.4019L4.35514 36.3958Z" fill="#1D1D1B"/>
<path d="M3.59641 30.732C4.04672 30.9831 4.26263 31.3627 4.25029 31.8709C4.23795 32.2444 4.10841 32.5505 3.86166 32.7893C3.57173 33.0649 3.17076 33.1996 2.66492 33.1873C2.15292 33.1751 1.75812 33.022 1.47435 32.722C1.24611 32.4832 1.13507 32.1954 1.14741 31.8525C1.15358 31.4974 1.28929 31.2096 1.54221 30.9953C1.80747 30.7749 2.17142 30.6708 2.64025 30.683H2.75129L2.69577 32.8567C2.94869 32.8567 3.14609 32.8322 3.28797 32.7832C3.73212 32.6424 3.95419 32.3362 3.96653 31.8709C3.9727 31.6137 3.90484 31.4055 3.75679 31.2402C3.68277 31.1606 3.5779 31.081 3.43602 31.0014L3.59024 30.7381L3.59641 30.732ZM2.46135 31.0076C2.25162 31.0198 2.08506 31.0443 1.97402 31.0933C1.61624 31.2219 1.43734 31.479 1.425 31.8587C1.41884 32.1403 1.51754 32.3669 1.7211 32.5505C1.83214 32.6485 1.96169 32.722 2.1159 32.771C2.18376 32.7955 2.28863 32.8138 2.41817 32.8383L2.46752 31.0137L2.46135 31.0076Z" fill="#1D1D1B"/>
<path d="M4.33663 29.7769L1.33862 29.4401L1.37564 29.1156L1.90615 29.1768C1.54836 28.9502 1.38797 28.6563 1.42499 28.3073C1.44349 28.1481 1.49901 28.0012 1.59154 27.8787L1.8568 28.0563C1.78277 28.1604 1.74576 28.2645 1.72725 28.3808C1.70875 28.5706 1.7581 28.7359 1.8753 28.889C2.04803 29.1033 2.32562 29.2258 2.71425 29.2686L4.37365 29.4523L4.33663 29.7769Z" fill="#1D1D1B"/>
<path d="M4.44151 25.454C4.81781 25.7601 4.95969 26.1398 4.86716 26.5867C4.78079 26.9786 4.55872 27.2542 4.18242 27.4134C3.86782 27.5481 3.49769 27.5726 3.07822 27.4868C2.57238 27.3827 2.20842 27.1623 1.98635 26.8378C1.81362 26.5745 1.75811 26.2806 1.82596 25.9622C1.92466 25.5091 2.20842 25.2213 2.68959 25.0927L0.789612 24.6947L0.857468 24.3763L5.10157 25.2703L5.03371 25.5887L4.44151 25.4662V25.454ZM2.11589 25.9622C2.04187 26.3051 2.1344 26.5867 2.38115 26.8072C2.56621 26.9725 2.8253 27.0888 3.16458 27.1623C3.62724 27.2603 3.99119 27.2174 4.25028 27.0337C4.42917 26.9113 4.54638 26.7337 4.59573 26.4949C4.65125 26.2316 4.60807 25.9989 4.47236 25.7908C4.29346 25.5213 3.99119 25.3438 3.55938 25.2519C3.13374 25.1601 2.78212 25.2029 2.51069 25.3805C2.30096 25.5152 2.16524 25.7112 2.11589 25.9622Z" fill="#1D1D1B"/>
<path d="M5.5519 21.7741C5.90969 22.1415 6.00222 22.5701 5.83566 23.0538C5.71229 23.4089 5.49638 23.6661 5.18795 23.813C4.83016 23.9906 4.41068 24.0028 3.92952 23.8375C3.44219 23.6722 3.10908 23.4089 2.93018 23.0415C2.78213 22.7476 2.76363 22.4354 2.87466 22.1108C2.99187 21.7741 3.20161 21.5353 3.51005 21.4067C3.83082 21.272 4.20711 21.2842 4.65126 21.4312L4.75613 21.4679L4.0529 23.5191C4.29965 23.5926 4.49088 23.6293 4.63893 23.6232C5.10158 23.6171 5.41002 23.3905 5.56424 22.9497C5.64443 22.7048 5.64443 22.4843 5.5519 22.2884C5.50872 22.1904 5.42853 22.0802 5.31749 21.9639L5.54573 21.7557L5.5519 21.7741ZM4.38601 21.7006C4.18244 21.6516 4.01588 21.6271 3.89251 21.6332C3.51621 21.6516 3.2633 21.8414 3.13992 22.2027C3.04739 22.466 3.07206 22.717 3.21395 22.9497C3.29414 23.0783 3.39284 23.1824 3.52238 23.2742C3.58407 23.3171 3.67043 23.3661 3.78764 23.4273L4.37984 21.7006H4.38601Z" fill="#1D1D1B"/>
<path d="M2.76975 19.2514C2.79443 19.1963 2.83761 19.1534 2.8993 19.1289C2.96098 19.1044 3.0165 19.1044 3.07819 19.1289C3.13988 19.1534 3.18306 19.1963 3.20773 19.2575C3.23241 19.3187 3.23241 19.3738 3.20773 19.4351C3.18306 19.4902 3.13988 19.533 3.07819 19.5575C3.0165 19.582 2.95482 19.582 2.89313 19.5575C2.83144 19.533 2.79443 19.4902 2.76975 19.4289C2.74508 19.3677 2.75125 19.3065 2.76975 19.2514ZM6.55737 21.0699L3.79994 19.8759L3.92948 19.5759L6.68691 20.7699L6.55737 21.0699Z" fill="#1D1D1B"/>
<path d="M7.18041 19.7167L4.50317 18.3452L4.65122 18.0574L5.12622 18.3023C4.8733 17.9594 4.83012 17.6349 4.99051 17.3165C5.06453 17.1757 5.1694 17.0594 5.29277 16.9736L5.47784 17.2308C5.37297 17.3043 5.29277 17.39 5.24342 17.488C5.15706 17.6533 5.14472 17.8309 5.20024 18.0145C5.28044 18.2717 5.49634 18.4921 5.84796 18.6697L7.32846 19.429L7.18041 19.7167Z" fill="#1D1D1B"/>
<path d="M6.24892 15.2041C6.44015 14.9102 6.70541 14.7326 7.04469 14.653C7.45183 14.5673 7.85896 14.653 8.27227 14.9163C8.69174 15.1857 8.94466 15.5164 9.03102 15.9205C9.10505 16.2573 9.04336 16.5756 8.85213 16.8757C8.6609 17.1757 8.39564 17.3594 8.05636 17.4329C7.64922 17.5186 7.24209 17.4329 6.81644 17.1635C6.40314 16.9002 6.14405 16.5634 6.05769 16.1654C5.98366 15.8286 6.04535 15.5102 6.24275 15.2041H6.24892ZM6.4895 15.3572C6.31061 15.6388 6.27976 15.9205 6.39697 16.2144C6.50184 16.4716 6.70541 16.6981 7.00767 16.8879C7.39014 17.1328 7.74793 17.2124 8.07487 17.1328C8.30311 17.0777 8.48201 16.943 8.61772 16.7348C8.79661 16.4593 8.82746 16.1838 8.71025 15.8899C8.60538 15.6266 8.40181 15.4 8.09954 15.2102C7.7726 15.002 7.46416 14.9102 7.16806 14.9408C6.87813 14.9714 6.65606 15.1122 6.49567 15.3572H6.4895Z" fill="#1D1D1B"/>
<path d="M9.29015 12.2283C9.14827 12.2283 9.03106 12.2406 8.93853 12.2651C8.76581 12.3202 8.61776 12.4243 8.48821 12.5835C8.22912 12.908 8.22912 13.1651 8.48821 13.3672C8.60542 13.4591 8.72879 13.4958 8.85834 13.4652C8.96937 13.4346 9.15444 13.3305 9.40119 13.1468C9.59859 12.9998 9.74664 12.9019 9.85151 12.8529C10.1846 12.6876 10.4807 12.7059 10.7336 12.908C10.9495 13.0794 11.0482 13.2999 11.0359 13.5693C11.0236 13.8081 10.9249 14.0407 10.7398 14.2795C10.4129 14.6898 9.99339 14.8735 9.48755 14.8245L9.49989 14.5122C9.68495 14.5306 9.833 14.5245 9.94404 14.5C10.1538 14.451 10.345 14.3224 10.5116 14.1081C10.6411 13.9489 10.7151 13.7958 10.7336 13.655C10.7645 13.4652 10.6966 13.306 10.5362 13.1774C10.4005 13.0733 10.2525 13.0427 10.0983 13.0917C9.97488 13.1284 9.78982 13.2447 9.54307 13.4284C9.29632 13.6121 9.10509 13.7223 8.96321 13.7652C8.71029 13.8387 8.48821 13.7958 8.29081 13.6366C8.06257 13.4529 7.96387 13.2264 8.01322 12.9508C8.04406 12.7672 8.13042 12.5835 8.27847 12.3998C8.45737 12.1732 8.66094 12.0263 8.88918 11.9589C9.00022 11.9222 9.13593 11.9099 9.28398 11.9161L9.29632 12.2161L9.29015 12.2283Z" fill="#1D1D1B"/>
<path d="M13.9846 9.89543C14.1203 10.3608 14.0154 10.7526 13.6823 11.0649C13.3924 11.3405 13.0469 11.4384 12.6459 11.3588C12.3067 11.2915 11.9921 11.1017 11.696 10.7955C11.3382 10.422 11.1654 10.0363 11.1716 9.64438C11.1778 9.33211 11.3012 9.05657 11.5479 8.83002C11.8872 8.51163 12.2882 8.43203 12.757 8.59735L11.4245 7.19518L11.6651 6.96863L14.6446 10.1036L14.404 10.3302L13.9907 9.89543H13.9846ZM11.7761 8.99534C11.5232 9.23414 11.4307 9.5158 11.5109 9.84032C11.5726 10.0791 11.7206 10.324 11.955 10.5751C12.282 10.918 12.6028 11.0894 12.9174 11.0833C13.1333 11.0833 13.3307 11.0037 13.5096 10.8322C13.707 10.6486 13.8057 10.4281 13.8118 10.1832C13.818 9.86481 13.67 9.54641 13.3677 9.22802C13.0716 8.91574 12.757 8.75042 12.43 8.73818C12.1771 8.73205 11.955 8.81778 11.77 8.98922L11.7761 8.99534Z" fill="#1D1D1B"/>
<path d="M17.0011 7.48296C17.0813 7.98505 16.9209 8.38917 16.5076 8.70144C16.2053 8.92799 15.8845 9.01372 15.5391 8.96473C15.1381 8.90962 14.7865 8.68307 14.4842 8.27895C14.1758 7.87484 14.0524 7.46459 14.1141 7.0666C14.1635 6.74208 14.3239 6.47267 14.6014 6.27061C14.8914 6.0563 15.1998 5.98283 15.5268 6.04406C15.866 6.11141 16.1745 6.33184 16.4521 6.70534L16.5199 6.79719L14.7742 8.09526C14.9346 8.2912 15.0764 8.43203 15.1998 8.51163C15.5884 8.7688 15.9647 8.75043 16.341 8.47489C16.5508 8.32182 16.668 8.13813 16.7112 7.92382C16.7297 7.81361 16.7297 7.68502 16.705 7.52582L17.0134 7.48296H17.0011ZM16.0819 6.7727C15.9401 6.6135 15.8167 6.50328 15.7118 6.44205C15.391 6.24612 15.0764 6.26449 14.768 6.49104C14.5398 6.66248 14.4226 6.87679 14.404 7.1462C14.3979 7.29315 14.4164 7.4401 14.4719 7.58705C14.4966 7.65441 14.5398 7.74625 14.6076 7.86259L16.0819 6.76657V6.7727Z" fill="#1D1D1B"/>
<path d="M19.3082 6.79717L17.9202 4.13978L18.2102 3.99283L18.4446 4.44593C18.4569 4.02345 18.6543 3.71117 19.0306 3.51524C19.3082 3.37441 19.5673 3.34991 19.8079 3.43564C20.0546 3.52748 20.2582 3.73566 20.4309 4.06018L21.3192 5.75626L21.0293 5.90321L20.1348 4.19489C19.8819 3.71117 19.5364 3.58259 19.0985 3.80302C18.8702 3.91935 18.7222 4.08468 18.6543 4.29286C18.5803 4.51941 18.6111 4.77045 18.753 5.03374L19.592 6.63797L19.302 6.78492L19.3082 6.79717Z" fill="#1D1D1B"/>
<path d="M22.3926 2.05188C22.7195 1.92942 23.0464 1.94167 23.3611 2.08862C23.7373 2.26006 24.0149 2.57846 24.1815 3.03768C24.3542 3.50303 24.3542 3.9194 24.1815 4.2929C24.0334 4.60517 23.7929 4.8256 23.4536 4.94806C23.1205 5.07052 22.7935 5.0644 22.4789 4.91745C22.1026 4.746 21.825 4.42761 21.6523 3.96226C21.4796 3.50303 21.4796 3.08054 21.6523 2.70704C21.7942 2.39477 22.0409 2.17434 22.3864 2.04576L22.3926 2.05188ZM22.4913 2.30905C22.1767 2.42538 21.9793 2.63356 21.8991 2.93972C21.825 3.20913 21.8559 3.50915 21.9793 3.84592C22.1396 4.27453 22.3741 4.55007 22.6887 4.68477C22.9046 4.77662 23.1328 4.77662 23.3672 4.68477C23.6757 4.57456 23.8669 4.36638 23.9533 4.06635C24.0273 3.79694 24.0026 3.49079 23.8792 3.15402C23.7435 2.79276 23.5461 2.5356 23.2932 2.38252C23.0403 2.23557 22.775 2.21108 22.4974 2.31517L22.4913 2.30905Z" fill="#1D1D1B"/>
<path d="M26.6428 1.50689C26.5318 1.41504 26.4331 1.35381 26.3405 1.31707C26.174 1.24972 25.9889 1.2436 25.7854 1.29258C25.3844 1.39055 25.2178 1.59873 25.298 1.91713C25.335 2.06408 25.4152 2.16205 25.5324 2.21715C25.6373 2.26614 25.847 2.29063 26.1555 2.29675C26.4022 2.29675 26.5811 2.31512 26.6983 2.33349C27.0623 2.40084 27.2844 2.59678 27.3646 2.90905C27.4324 3.17234 27.3769 3.41114 27.198 3.61932C27.0438 3.80301 26.8217 3.9316 26.5256 3.99895C26.0136 4.12753 25.5695 4.01732 25.1932 3.67443L25.3967 3.43563C25.5324 3.56422 25.6558 3.64994 25.7545 3.6928C25.9519 3.77852 26.1802 3.79077 26.4454 3.72341C26.6428 3.67443 26.797 3.60095 26.9019 3.49686C27.0438 3.36216 27.087 3.19684 27.0376 3.0009C26.9944 2.83558 26.8957 2.72536 26.7415 2.67026C26.6181 2.6274 26.4022 2.6029 26.0938 2.6029C25.7854 2.6029 25.5633 2.57229 25.4337 2.51718C25.187 2.41921 25.0389 2.25389 24.9773 2.00897C24.9032 1.72731 24.9773 1.48852 25.1747 1.29258C25.3104 1.164 25.4893 1.07215 25.7237 1.01705C26.0074 0.949692 26.2604 0.955815 26.4824 1.04154C26.5935 1.0844 26.7107 1.15175 26.8217 1.24972L26.649 1.49464L26.6428 1.50689Z" fill="#1D1D1B"/>
<path d="M29.8752 0.943572C29.7765 0.845604 29.6778 0.778251 29.5915 0.73539C29.4311 0.655791 29.246 0.631299 29.0424 0.661914C28.6291 0.723144 28.4502 0.912957 28.4996 1.23135C28.5243 1.37831 28.5921 1.48852 28.7032 1.54975C28.8019 1.60486 29.0116 1.65384 29.32 1.69058C29.5606 1.71507 29.7395 1.74569 29.8567 1.78242C30.2145 1.88651 30.4181 2.10082 30.4613 2.41922C30.5044 2.68863 30.4242 2.9213 30.2268 3.10499C30.0541 3.27031 29.8197 3.37441 29.5236 3.41727C28.9993 3.49074 28.5675 3.34379 28.2282 2.96416L28.4502 2.74986C28.5736 2.89069 28.6847 2.98866 28.7772 3.04376C28.9623 3.14785 29.1905 3.18459 29.4619 3.14173C29.6655 3.11112 29.8197 3.04989 29.9369 2.96416C30.0911 2.8417 30.1528 2.68251 30.122 2.48045C30.0973 2.309 30.0109 2.19266 29.8567 2.11919C29.7395 2.06408 29.5298 2.02122 29.2213 1.98448C28.9129 1.95387 28.697 1.90488 28.5736 1.83753C28.3392 1.72119 28.2035 1.5375 28.1665 1.28646C28.1233 0.998679 28.2158 0.766005 28.4317 0.594561C28.5798 0.478223 28.771 0.404747 29.0054 0.374132C29.2954 0.331271 29.5421 0.361886 29.758 0.4721C29.8629 0.521084 29.9739 0.600683 30.0788 0.710898L29.8814 0.943572H29.8752Z" fill="#1D1D1B"/>
<path d="M33.2064 2.59681C32.9843 2.93358 32.6759 3.11727 32.2749 3.13564C31.985 3.15401 31.7444 3.08053 31.5594 2.91521C31.4051 2.7805 31.3188 2.60294 31.3064 2.38251C31.2818 1.96002 31.51 1.66611 31.985 1.50692C32.2503 1.42119 32.6327 1.34772 33.1262 1.29261L33.1077 0.998707C33.083 0.527236 32.8548 0.300685 32.423 0.325177C32.1022 0.343546 31.8061 0.490498 31.5347 0.778279L31.3188 0.57622C31.6149 0.245577 31.9788 0.0680103 32.4045 0.0496412C32.7314 0.0312722 32.9843 0.110871 33.1632 0.288439C33.3236 0.447637 33.4161 0.686434 33.4347 0.992584L33.5148 2.45598C33.521 2.57844 33.558 2.67029 33.6321 2.71927C33.6814 2.75601 33.7739 2.76826 33.9096 2.76826L33.922 3.03155C33.8665 3.03767 33.8233 3.04379 33.7801 3.04379C33.4717 3.06216 33.2804 2.91521 33.2002 2.60293L33.2064 2.59681ZM33.1447 1.54365C32.8178 1.56815 32.5278 1.61101 32.2934 1.67836C31.8431 1.80082 31.6272 2.02125 31.6457 2.35189C31.6519 2.50497 31.7074 2.6213 31.8123 2.71315C31.9295 2.81724 32.096 2.86622 32.3058 2.85398C32.534 2.84173 32.7376 2.76826 32.9041 2.62743C32.9658 2.57232 33.0213 2.51109 33.0645 2.44374C33.1447 2.32128 33.1756 2.20494 33.1694 2.09473L33.1386 1.54978L33.1447 1.54365Z" fill="#1D1D1B"/>
<path d="M36.5005 0.710923C36.4203 0.594585 36.3401 0.508863 36.2599 0.447633C36.1119 0.337419 35.9391 0.282312 35.7356 0.276189C35.3223 0.263943 35.1064 0.417018 35.1002 0.741538C35.1002 0.894613 35.1434 1.01095 35.2421 1.09055C35.3284 1.16403 35.5258 1.24362 35.8219 1.33547C36.0563 1.40282 36.2229 1.46405 36.3339 1.51916C36.6671 1.68448 36.8274 1.9294 36.8151 2.25392C36.8089 2.52946 36.6856 2.73764 36.4635 2.89071C36.2661 3.02542 36.0132 3.08665 35.7109 3.0744C35.1804 3.05603 34.7856 2.83561 34.5203 2.407L34.7794 2.23555C34.8781 2.39475 34.9706 2.51109 35.0508 2.57844C35.2174 2.71315 35.4333 2.78662 35.7047 2.79887C35.9083 2.80499 36.0749 2.77438 36.2044 2.70702C36.3771 2.61518 36.4635 2.46823 36.4697 2.26617C36.4697 2.09472 36.408 1.96002 36.2723 1.86817C36.1674 1.79469 35.9638 1.70897 35.6677 1.62325C35.3716 1.53753 35.168 1.45181 35.0508 1.36608C34.8411 1.20689 34.7424 1.00483 34.7486 0.753784C34.7547 0.459879 34.8843 0.251697 35.1372 0.116991C35.3038 0.0312689 35.5012 -0.00546918 35.7417 0.000653822C36.0317 0.00677683 36.2723 0.0863759 36.4635 0.227205C36.556 0.294558 36.6485 0.392526 36.7349 0.521109L36.5005 0.710923Z" fill="#1D1D1B"/>
<path d="M40.7693 3.13563C40.4794 3.41729 40.1339 3.5275 39.7391 3.46015C39.4492 3.41117 39.2333 3.28871 39.0914 3.08665C38.968 2.92133 38.9248 2.72539 38.9618 2.51108C39.0359 2.09472 39.3196 1.85592 39.8193 1.80694C40.0969 1.77632 40.4855 1.79469 40.979 1.8498L41.0284 1.5559C41.1086 1.09055 40.9358 0.821135 40.5102 0.747659C40.1956 0.692552 39.8748 0.778274 39.5479 0.992579L39.3813 0.747659C39.7453 0.490493 40.1401 0.398648 40.5596 0.472124C40.8803 0.527231 41.1086 0.655814 41.2443 0.870119C41.3677 1.06606 41.4047 1.31098 41.3492 1.61713L41.1024 3.06216C41.0839 3.18462 41.1024 3.27646 41.1579 3.34381C41.1949 3.38667 41.2875 3.42341 41.4232 3.45403L41.38 3.71119C41.3245 3.71119 41.2751 3.69895 41.2381 3.69283C40.9297 3.64384 40.7755 3.45403 40.7631 3.13563H40.7693ZM40.942 2.09472C40.6151 2.04574 40.3313 2.02737 40.0846 2.03961C39.6219 2.05798 39.3628 2.22943 39.3073 2.55395C39.2826 2.7009 39.3073 2.82948 39.3875 2.94582C39.48 3.0744 39.6281 3.16012 39.8378 3.19686C40.0661 3.2336 40.2758 3.20298 40.467 3.10502C40.541 3.06828 40.6089 3.01929 40.6644 2.95806C40.7693 2.85397 40.831 2.74988 40.8495 2.63967L40.942 2.10084V2.09472Z" fill="#1D1D1B"/>
<path d="M42.9592 4.47657C43.0147 4.47657 43.0641 4.48269 43.1011 4.49494C43.1751 4.5133 43.2368 4.55004 43.2861 4.59903C43.391 4.70312 43.4218 4.8317 43.3787 4.9909C43.3293 5.16847 43.2121 5.27256 43.0209 5.29705C42.9407 5.3093 42.8481 5.29705 42.7556 5.27256C42.5582 5.21745 42.4102 5.09499 42.2991 4.90518L42.5027 4.80721C42.5706 4.93579 42.6693 5.02151 42.7988 5.05825C42.9654 5.10111 43.0641 5.05825 43.1072 4.91742C43.1443 4.77659 43.0949 4.69087 42.9469 4.64801C42.879 4.62964 42.8111 4.63576 42.7556 4.66026L42.6322 4.50718L43.0394 4.16429C42.8358 4.06632 42.6754 3.94999 42.5706 3.8214C42.441 3.66221 42.3547 3.47852 42.3053 3.27033C42.2498 3.00092 42.2621 2.70702 42.3547 2.38862C42.4965 1.89878 42.7433 1.55589 43.0949 1.35996C43.3848 1.20076 43.6994 1.16402 44.0449 1.26199C44.341 1.34159 44.5631 1.49466 44.7173 1.72121C44.7975 1.83755 44.8653 1.9845 44.9147 2.17432L44.6186 2.26616C44.5631 2.07635 44.5014 1.93552 44.4397 1.84367C44.3348 1.69672 44.1806 1.59263 43.977 1.53752C43.6316 1.43956 43.3293 1.51303 43.0826 1.75795C42.9037 1.93552 42.768 2.18044 42.6816 2.49271C42.5952 2.80499 42.5767 3.08052 42.6384 3.31932C42.7248 3.65608 42.9407 3.87651 43.2985 3.97448C43.5452 4.04183 43.7673 4.02346 43.9709 3.91325C44.0634 3.86427 44.1744 3.77854 44.2978 3.65608L44.5075 3.88263C44.341 4.04183 44.1683 4.15205 43.9955 4.2194C43.7796 4.299 43.5267 4.31125 43.2306 4.24389L42.9469 4.48269L42.9592 4.47657Z" fill="#1D1D1B"/>
<path d="M47.3452 2.40087C47.6659 2.53558 47.8942 2.76213 48.0299 3.08053C48.1903 3.46015 48.1718 3.87652 47.9867 4.32962C47.7955 4.78272 47.5117 5.09499 47.1293 5.24807C46.8085 5.38278 46.4815 5.37665 46.1484 5.24807C45.8215 5.11336 45.5871 4.88681 45.4514 4.56842C45.291 4.18879 45.3095 3.77243 45.5007 3.3132C45.6919 2.8601 45.9757 2.55395 46.3582 2.39475C46.6789 2.26004 47.0059 2.26617 47.3452 2.40087ZM47.2341 2.65804C46.9257 2.52945 46.6358 2.55395 46.3705 2.71927C46.1361 2.86622 45.951 3.10502 45.8092 3.43566C45.6364 3.85815 45.6179 4.2194 45.7536 4.51943C45.8523 4.72761 46.0127 4.88069 46.2471 4.97866C46.5494 5.10112 46.8332 5.08275 47.0984 4.91743C47.339 4.77047 47.5241 4.53168 47.666 4.20104C47.814 3.8459 47.8448 3.5275 47.7646 3.24585C47.6845 2.97031 47.5056 2.77437 47.228 2.66416L47.2341 2.65804ZM47.0552 1.64774L46.8455 1.5314C46.938 1.37833 47.0429 1.27424 47.1601 1.21913C47.2712 1.17015 47.3822 1.16402 47.4809 1.20689C47.5672 1.24362 47.6721 1.34159 47.7893 1.50079C47.8819 1.62325 47.9497 1.69673 48.0052 1.71509C48.1101 1.75796 48.2088 1.69673 48.3137 1.5314L48.5234 1.64774C48.4309 1.80694 48.326 1.91103 48.215 1.96001C48.1039 2.009 47.9929 2.01512 47.888 1.97226C47.8017 1.93552 47.6968 1.83755 47.5796 1.67836C47.4871 1.5559 47.4192 1.48242 47.3637 1.46405C47.2588 1.42119 47.1539 1.48242 47.0614 1.64774H47.0552Z" fill="#1D1D1B"/>
<path d="M50.6084 6.7237C50.1766 6.99923 49.7386 7.01148 49.2883 6.76043C48.9552 6.57674 48.7455 6.31958 48.6529 5.98894C48.5419 5.60319 48.6098 5.19294 48.8565 4.75209C49.1094 4.31123 49.4302 4.0357 49.825 3.92548C50.1458 3.83976 50.4542 3.8765 50.7565 4.04182C51.0711 4.21939 51.2623 4.47043 51.3364 4.78883C51.4104 5.12559 51.3364 5.49297 51.1019 5.89709L51.0464 5.99506L49.1403 4.93578C49.0231 5.15621 48.949 5.3399 48.9305 5.48685C48.8565 5.93995 49.0169 6.27672 49.4302 6.50327C49.6585 6.63185 49.8744 6.66859 50.0841 6.61348C50.189 6.58899 50.3123 6.53388 50.4481 6.44816L50.6084 6.70533V6.7237ZM50.8922 5.59706C50.9786 5.40725 51.0341 5.24805 51.0464 5.13171C51.0958 4.75821 50.9539 4.48268 50.6208 4.29899C50.374 4.16428 50.1211 4.13979 49.8682 4.23776C49.7263 4.29286 49.6029 4.37246 49.4919 4.47655C49.4425 4.52554 49.3747 4.60514 49.2883 4.70923L50.8922 5.60319V5.59706Z" fill="#1D1D1B"/>
<path d="M53.884 6.88289C53.884 6.74206 53.8594 6.62573 53.8285 6.53388C53.7668 6.36244 53.6558 6.22161 53.4892 6.09915C53.1499 5.86035 52.8847 5.8726 52.6996 6.13589C52.6133 6.25835 52.5824 6.38081 52.6194 6.50327C52.6503 6.61348 52.7675 6.79105 52.9649 7.02985C53.1191 7.21354 53.2301 7.36049 53.2857 7.46458C53.4707 7.78298 53.4707 8.07688 53.2795 8.34017C53.1191 8.5606 52.9032 8.67693 52.6318 8.67693C52.3912 8.67693 52.1506 8.59121 51.9039 8.41977C51.472 8.11362 51.2685 7.7095 51.287 7.20129H51.6016C51.5954 7.38498 51.6016 7.53193 51.6324 7.64215C51.6941 7.85033 51.836 8.0279 52.0581 8.18709C52.2246 8.30343 52.3789 8.37078 52.5269 8.38303C52.7243 8.4014 52.8785 8.32792 52.9957 8.1626C53.0944 8.02177 53.1191 7.87482 53.0574 7.72175C53.0081 7.59928 52.8909 7.42172 52.6935 7.18904C52.4961 6.95637 52.3727 6.76656 52.3295 6.63185C52.2431 6.38693 52.274 6.16038 52.422 5.9522C52.5948 5.7134 52.8168 5.60931 53.1006 5.63992C53.2857 5.65829 53.4769 5.73789 53.6681 5.8726C53.9025 6.03792 54.0629 6.23385 54.1431 6.46041C54.1801 6.57062 54.2048 6.70533 54.2048 6.85228L53.9025 6.88289H53.884Z" fill="#1D1D1B"/>
<path d="M27.9753 15.0327C33.1509 15.0327 37.506 16.8879 41.0407 20.5556C44.3718 24.058 46.0621 28.2032 46.0621 32.9792C46.0621 38.0184 44.3718 42.2188 40.9358 45.7212C37.4011 49.3337 33.046 51.14 27.8704 51.14C22.6948 51.14 18.2903 49.2786 14.7063 45.6171C11.3752 42.1147 9.68494 37.9205 9.68494 32.9853C9.68494 28.0502 11.3752 24.0641 14.7063 20.5617C18.1916 16.9002 22.6455 15.0388 27.9753 15.0388" fill="#C6C5BA"/>
<path d="M21.091 24.0947C23.6819 24.0947 25.8594 25.056 27.6237 26.8806C29.2831 28.5951 30.1097 30.634 30.1097 33.0404C30.1097 35.4467 29.2831 37.651 27.5682 39.3654C25.8039 41.1901 23.6263 42.0963 21.0355 42.0963C18.4446 42.0963 16.267 41.184 14.4534 39.3103C12.794 37.5959 11.9674 35.5079 11.9674 33.0404C11.9674 30.5728 12.794 28.5951 14.4534 26.8806C16.2177 25.056 18.4446 24.0947 21.0848 24.0947" fill="#D20A11"/>
<path d="M21.313 18.1798C22.0964 18.1798 22.7071 18.4125 23.2068 18.9391C23.7065 19.4657 23.9841 20.1086 23.9841 20.8066C23.9841 21.5046 23.7065 22.1475 23.2068 22.6741C22.7071 23.2007 22.0903 23.4334 21.313 23.4334C20.5913 23.4334 19.9189 23.2007 19.4192 22.6129C18.9195 22.1475 18.6913 21.5046 18.6913 20.8005C18.6913 20.0963 18.9134 19.4595 19.4192 18.933C19.9189 18.4064 20.5913 18.1737 21.313 18.1737" fill="#D20A11"/>
</svg>