<?xml version="1.0" encoding="utf-8"?>
<svg xmlns="http://www.w3.org/2000/svg" viewBox="0 0 500 500">
  <path d="M 226.236 241.776 L 226.236 215.109 L 232.302 215.109 L 232.302 241.776 L 226.236 241.776 Z" style="fill: rgb(255, 255, 255);"/>
  <path d="M 238.127 241.776 L 238.127 222.263 L 243.934 222.263 L 243.934 225.33 C 245.27 222.976 247.312 221.789 250.076 221.789 C 251.985 221.789 253.489 222.409 254.584 223.634 C 255.733 224.91 256.307 226.773 256.307 229.182 L 256.307 241.794 L 250.503 241.794 L 250.503 229.93 C 250.503 227.465 249.519 226.243 247.552 226.243 C 246.419 226.243 245.528 226.609 244.879 227.34 C 244.25 228.031 243.952 229.018 243.952 230.297 L 243.952 241.794 L 238.145 241.794 L 238.127 241.776 Z" style="fill: rgb(255, 255, 255);"/>
  <path d="M 273.711 227.703 C 272.171 226.553 270.427 225.968 268.496 225.968 C 266.791 225.968 265.937 226.481 265.937 227.503 C 265.937 228.067 266.217 228.505 266.773 228.797 C 267.254 229.054 268.274 229.31 269.813 229.584 C 271.892 229.948 273.413 230.422 274.415 231.006 C 276.123 232.028 276.974 233.599 276.974 235.734 C 276.974 238.452 275.678 240.333 273.098 241.391 C 271.762 241.94 270.147 242.214 268.256 242.214 C 265.808 242.214 263.729 241.811 262.021 241.01 C 261.188 240.625 260.352 240.077 259.519 239.367 L 262.208 235.662 C 263.916 237.23 265.88 238.014 268.108 238.014 C 270.334 238.014 271.392 237.394 271.392 236.154 C 271.392 235.588 271.149 235.185 270.65 234.932 C 270.298 234.747 269.146 234.476 267.197 234.109 C 265.435 233.763 264.063 233.289 263.062 232.687 C 261.354 231.647 260.502 230.076 260.502 227.96 C 260.502 225.694 261.465 224.034 263.378 222.94 C 264.749 222.156 266.493 221.771 268.607 221.771 C 271.633 221.771 274.21 222.537 276.364 224.073 L 273.711 227.703 Z" style="fill: rgb(255, 255, 255);"/>
  <path d="M 279.332 226.699 L 279.332 222.245 L 282.06 222.245 L 282.06 218.323 L 287.864 216.331 L 287.864 222.227 L 292.02 222.227 L 292.02 226.681 L 287.864 226.681 L 287.864 235.295 C 287.864 236.72 288.42 237.433 289.515 237.433 C 290.186 237.433 290.832 237.23 291.521 236.81 L 292.929 240.643 C 291.611 241.665 290.035 242.178 288.198 242.178 C 286.159 242.178 284.583 241.594 283.506 240.408 C 282.541 239.346 282.06 237.889 282.06 235.99 L 282.06 226.681 L 279.332 226.681 L 279.332 226.699 Z" style="fill: rgb(255, 255, 255);"/>
  <path d="M 299.091 213.413 C 300.035 213.413 300.853 213.741 301.5 214.379 C 302.131 214.981 302.429 215.711 302.429 216.552 C 302.429 217.393 302.113 218.176 301.482 218.779 C 300.814 219.416 300.017 219.727 299.07 219.727 C 298.126 219.727 297.289 219.399 296.64 218.761 C 296.029 218.159 295.714 217.41 295.714 216.552 C 295.714 215.693 296.029 214.981 296.64 214.379 C 297.289 213.741 298.107 213.413 299.091 213.413 Z M 296.159 241.776 L 296.159 222.263 L 301.966 222.263 L 301.966 241.776 L 296.159 241.776 Z" style="fill: rgb(255, 255, 255);"/>
  <path d="M 305.34 226.699 L 305.34 222.245 L 308.068 222.245 L 308.068 218.323 L 313.875 216.331 L 313.875 222.227 L 318.032 222.227 L 318.032 226.681 L 313.875 226.681 L 313.875 235.295 C 313.875 236.72 314.432 237.433 315.527 237.433 C 316.194 237.433 316.862 237.23 317.53 236.81 L 318.94 240.643 C 317.623 241.665 316.047 242.178 314.209 242.178 C 312.167 242.178 310.591 241.594 309.515 240.408 C 308.552 239.346 308.068 237.889 308.068 235.99 L 308.068 226.681 L 305.34 226.681 L 305.34 226.699 Z" style="fill: rgb(255, 255, 255);"/>
  <path d="M 333.914 238.783 C 332.669 241.063 330.684 242.196 327.977 242.196 C 325.953 242.196 324.395 241.501 323.301 240.098 C 322.317 238.837 321.815 237.066 321.815 234.786 L 321.815 222.245 L 327.622 222.245 L 327.622 234.109 C 327.622 235.516 327.902 236.482 328.459 237.048 C 328.886 237.486 329.517 237.704 330.332 237.704 C 331.463 237.704 332.335 237.34 332.967 236.628 C 333.598 235.915 333.914 234.95 333.914 233.71 L 333.914 222.245 L 339.718 222.245 L 339.718 241.758 L 333.914 241.758 L 333.914 238.765 L 333.914 238.783 Z" style="fill: rgb(255, 255, 255);"/>
  <path d="M 343.132 226.699 L 343.132 222.245 L 345.86 222.245 L 345.86 218.323 L 351.667 216.331 L 351.667 222.227 L 355.823 222.227 L 355.823 226.681 L 351.667 226.681 L 351.667 235.295 C 351.667 236.72 352.223 237.433 353.318 237.433 C 353.986 237.433 354.653 237.23 355.321 236.81 L 356.713 240.643 C 355.396 241.665 353.82 242.178 351.983 242.178 C 349.941 242.178 348.365 241.594 347.288 240.408 C 346.323 239.346 345.842 237.889 345.842 235.99 L 345.842 226.681 L 343.114 226.681 L 343.132 226.699 Z" style="fill: rgb(255, 255, 255);"/>
  <path d="M 368.773 221.771 C 371.648 221.771 374.042 222.701 375.934 224.582 C 377.844 226.481 378.809 228.925 378.809 231.939 C 378.809 234.95 377.844 237.486 375.895 239.385 C 373.985 241.245 371.573 242.196 368.641 242.196 C 365.712 242.196 363.225 241.263 361.351 239.385 C 359.459 237.522 358.512 235.096 358.512 232.121 C 358.512 229.146 359.495 226.517 361.48 224.564 C 363.354 222.701 365.784 221.771 368.773 221.771 Z M 368.773 226.225 C 365.877 226.225 364.431 228.159 364.431 232.011 C 364.431 234.273 364.969 235.88 366.046 236.831 C 366.731 237.433 367.585 237.743 368.641 237.743 C 370.181 237.743 371.315 237.141 372.036 235.915 C 372.632 234.932 372.927 233.617 372.927 231.957 C 372.927 230.294 372.632 228.982 372.054 228.031 C 371.333 226.827 370.238 226.225 368.773 226.225 Z" style="fill: rgb(255, 255, 255);"/>
  <path d="M 226.29 275.996 L 226.29 249.332 L 238.202 249.332 C 241.504 249.332 243.989 250.191 245.604 251.905 C 246.864 253.219 247.495 254.897 247.495 256.96 C 247.495 258.859 246.996 260.409 246.013 261.577 C 245.417 262.272 244.695 262.802 243.859 263.202 C 243.525 263.348 243.026 263.512 242.377 263.715 C 243.583 264.096 244.491 264.627 245.083 265.265 C 245.51 265.721 245.844 266.269 246.124 266.925 C 246.289 267.31 246.476 268.022 246.716 269.044 C 247.552 272.675 248.292 274.937 248.942 275.87 L 248.942 276.017 L 242.728 276.017 C 242.079 274.866 241.411 272.729 240.704 269.608 C 240.392 268.186 239.889 267.181 239.204 266.615 C 238.554 266.087 237.646 265.813 236.419 265.813 L 232.302 265.813 L 232.302 276.017 L 226.29 276.017 L 226.29 275.996 Z M 232.302 261.36 L 237.291 261.36 C 238.701 261.36 239.778 261.032 240.521 260.373 C 241.243 259.735 241.598 258.823 241.598 257.637 C 241.598 255.207 240.298 254.003 237.718 254.003 L 232.302 254.003 L 232.302 261.36 Z" style="fill: rgb(255, 255, 255);"/>
  <path d="M 261.705 256.012 C 264.584 256.012 266.974 256.942 268.887 258.823 C 270.797 260.722 271.762 263.166 271.762 266.177 C 271.762 269.19 270.797 271.727 268.848 273.623 C 266.938 275.504 264.526 276.434 261.594 276.434 C 258.665 276.434 256.178 275.504 254.304 273.623 C 252.412 271.763 251.465 269.354 251.465 266.362 C 251.465 263.366 252.448 260.758 254.433 258.805 C 256.307 256.942 258.737 256.012 261.726 256.012 L 261.705 256.012 Z M 261.705 260.466 C 258.812 260.466 257.366 262.4 257.366 266.251 C 257.366 268.514 257.904 270.12 258.981 271.068 C 259.666 271.67 260.52 271.98 261.576 271.98 C 263.116 271.98 264.25 271.378 264.971 270.156 C 265.567 269.17 265.862 267.858 265.862 266.195 C 265.862 264.534 265.567 263.22 264.99 262.272 C 264.268 261.068 263.173 260.466 261.705 260.466 Z" style="fill: rgb(255, 255, 255);"/>
  <path d="M 281.521 259.443 C 283.004 257.163 285.028 256.012 287.569 256.012 C 289.813 256.012 291.669 256.832 293.097 258.456 C 294.805 260.373 295.656 262.949 295.656 266.195 C 295.656 269.9 294.655 272.675 292.652 274.517 C 291.26 275.796 289.536 276.434 287.458 276.434 C 284.766 276.434 282.782 275.286 281.503 272.985 L 281.503 276.017 L 275.696 276.017 L 275.696 247.907 L 281.503 247.907 L 281.503 259.443 L 281.521 259.443 Z M 285.714 260.466 C 284.135 260.466 282.986 261.103 282.243 262.382 C 281.669 263.348 281.371 264.663 281.371 266.287 C 281.371 268.478 281.891 270.064 282.929 271.015 C 283.636 271.653 284.526 271.98 285.621 271.98 C 288.384 271.98 289.759 270.085 289.759 266.287 C 289.759 264.57 289.461 263.22 288.887 262.272 C 288.162 261.068 287.085 260.466 285.696 260.466 L 285.714 260.466 Z" style="fill: rgb(255, 255, 255);"/>
  <path d="M 317.605 272.019 C 315.767 274.955 312.874 276.416 308.94 276.416 C 305.897 276.416 303.413 275.486 301.5 273.605 C 299.626 271.781 298.682 269.372 298.682 266.397 C 298.682 263.241 299.665 260.683 301.632 258.749 C 303.506 256.924 305.843 255.994 308.682 255.994 C 311.521 255.994 313.894 256.924 315.563 258.766 C 317.178 260.537 317.975 263.002 317.975 266.141 L 317.975 267.694 L 304.507 267.694 C 304.637 268.496 304.766 269.134 304.916 269.554 C 305.25 270.466 305.843 271.161 306.715 271.617 C 307.346 271.945 308.125 272.109 309.052 272.109 C 310.239 272.109 311.205 271.799 311.966 271.161 C 312.354 270.851 312.727 270.395 313.097 269.81 L 317.623 272.037 L 317.605 272.019 Z M 312.336 264.206 C 312.206 263.038 311.945 262.162 311.557 261.559 C 310.964 260.665 309.999 260.209 308.664 260.209 C 307.325 260.209 306.288 260.683 305.584 261.652 C 305.157 262.236 304.823 263.095 304.619 264.206 L 312.318 264.206 L 312.336 264.206 Z" style="fill: rgb(255, 255, 255);"/>
  <path d="M 321.984 275.996 L 321.984 256.486 L 327.791 256.486 L 327.791 259.807 C 329.051 257.309 330.759 256.066 332.91 256.066 C 333.968 256.066 334.916 256.34 335.788 256.871 L 334.338 262.016 C 333.598 261.559 332.798 261.342 331.926 261.342 C 330.795 261.342 329.851 261.706 329.108 262.436 C 328.218 263.312 327.773 264.552 327.773 266.195 L 327.773 276.017 L 321.965 276.017 L 321.984 275.996 Z" style="fill: rgb(255, 255, 255);"/>
  <path d="M 337.733 260.939 L 337.733 256.486 L 340.461 256.486 L 340.461 252.563 L 346.269 250.572 L 346.269 256.468 L 350.425 256.468 L 350.425 260.922 L 346.269 260.922 L 346.269 269.536 C 346.269 270.961 346.825 271.67 347.92 271.67 C 348.587 271.67 349.237 271.471 349.923 271.05 L 351.333 274.884 C 350.016 275.906 348.44 276.416 346.602 276.416 C 344.56 276.416 342.984 275.832 341.908 274.645 C 340.942 273.587 340.461 272.109 340.461 270.231 L 340.461 260.922 L 337.733 260.922 L 337.733 260.939 Z" style="fill: rgb(255, 255, 255);"/>
  <path d="M 366.713 275.996 L 366.713 249.332 L 378.956 249.332 C 382.241 249.332 384.653 250.116 386.174 251.705 C 387.287 252.852 387.843 254.423 387.843 256.394 C 387.843 258.129 387.362 259.515 386.415 260.537 C 385.877 261.103 385.08 261.634 384.003 262.126 C 385.377 262.6 386.415 263.184 387.119 263.861 C 388.271 264.973 388.845 266.526 388.845 268.532 C 388.845 270.887 388.102 272.693 386.619 273.954 C 385.004 275.322 382.592 276.017 379.384 276.017 L 366.731 276.017 L 366.713 275.996 Z M 372.668 260.117 L 378.623 260.117 C 380.848 260.117 381.982 259.076 381.982 256.978 C 381.982 254.879 380.776 253.875 378.364 253.875 L 372.686 253.875 L 372.686 260.099 L 372.668 260.117 Z M 372.668 271.435 L 378.92 271.435 C 380.292 271.435 381.314 271.05 382 270.302 C 382.556 269.7 382.836 268.877 382.836 267.858 C 382.836 265.521 381.462 264.353 378.716 264.353 L 372.668 264.353 L 372.668 271.417 L 372.668 271.435 Z" style="fill: rgb(255, 255, 255);"/>
  <path d="M 402.351 256.012 C 405.226 256.012 407.62 256.942 409.512 258.823 C 411.425 260.722 412.387 263.166 412.387 266.177 C 412.387 269.19 411.425 271.727 409.476 273.623 C 407.563 275.504 405.151 276.434 402.222 276.434 C 399.29 276.434 396.806 275.504 394.932 273.623 C 393.037 271.763 392.093 269.354 392.093 266.362 C 392.093 263.366 393.076 260.758 395.061 258.805 C 396.935 256.942 399.365 256.012 402.351 256.012 Z M 402.351 260.466 C 399.458 260.466 398.012 262.4 398.012 266.251 C 398.012 268.514 398.547 270.12 399.624 271.068 C 400.309 271.67 401.163 271.98 402.222 271.98 C 403.762 271.98 404.893 271.378 405.617 270.156 C 406.21 269.17 406.508 267.858 406.508 266.195 C 406.508 264.534 406.21 263.22 405.635 262.272 C 404.911 261.068 403.816 260.466 402.351 260.466 Z" style="fill: rgb(255, 255, 255);"/>
  <path d="M 428.733 261.926 C 427.193 260.776 425.449 260.191 423.521 260.191 C 421.813 260.191 420.958 260.701 420.958 261.723 C 420.958 262.29 421.238 262.728 421.794 263.02 C 422.276 263.276 423.298 263.53 424.838 263.804 C 426.895 264.171 428.435 264.645 429.436 265.229 C 431.145 266.251 431.999 267.819 431.999 269.956 C 431.999 272.675 430.7 274.556 428.119 275.614 C 426.784 276.163 425.172 276.434 423.277 276.434 C 420.829 276.434 418.751 276.034 417.046 275.23 C 416.21 274.848 415.395 274.3 414.541 273.587 L 417.229 269.882 C 418.955 271.453 420.922 272.237 423.13 272.237 C 425.337 272.237 426.396 271.617 426.396 270.377 C 426.396 269.81 426.155 269.408 425.653 269.152 C 425.301 268.97 424.149 268.696 422.203 268.332 C 420.441 267.983 419.067 267.509 418.083 266.907 C 416.378 265.867 415.524 264.299 415.524 262.18 C 415.524 259.917 416.489 258.257 418.399 257.163 C 419.77 256.376 421.515 255.994 423.632 255.994 C 426.654 255.994 429.235 256.76 431.385 258.293 L 428.733 261.926 Z" style="fill: rgb(255, 255, 255);"/>
  <path d="M 453.315 271.197 C 451.607 274.684 448.732 276.434 444.687 276.434 C 441.755 276.434 439.382 275.54 437.602 273.733 C 435.764 271.909 434.856 269.462 434.856 266.379 C 434.856 263.294 435.818 260.612 437.749 258.695 C 439.547 256.906 441.848 256.012 444.612 256.012 C 448.51 256.012 451.328 257.744 453.093 261.196 L 448.269 263.405 C 447.914 262.582 447.562 261.962 447.228 261.559 C 446.618 260.829 445.818 260.466 444.798 260.466 C 443.295 260.466 442.2 261.086 441.532 262.343 C 440.994 263.348 440.735 264.645 440.735 266.233 C 440.735 270.064 442.128 271.98 444.892 271.98 C 446.022 271.98 446.952 271.599 447.673 270.815 C 448.046 270.395 448.398 269.793 448.732 268.988 L 453.315 271.197 Z" style="fill: rgb(255, 255, 255);"/>
  <path d="M 456.618 275.996 L 456.618 247.889 L 462.422 247.889 L 462.422 259.536 C 463.76 257.181 465.799 255.994 468.563 255.994 C 470.882 255.994 472.572 256.871 473.667 258.62 C 474.407 259.846 474.798 261.431 474.798 263.366 L 474.798 275.978 L 468.99 275.978 L 468.99 264.114 C 468.99 261.67 468.007 260.43 466.022 260.43 C 464.78 260.43 463.832 260.868 463.201 261.723 C 462.684 262.436 462.422 263.348 462.422 264.481 L 462.422 275.978 L 456.618 275.978 L 456.618 275.996 Z" style="fill: rgb(255, 255, 255);"/>
  <path d="M 130.653 168.605 C 153.732 168.605 173.398 176.8 189.464 193.17 C 204.438 208.739 211.932 227.211 211.932 248.545 C 211.932 271.015 204.287 289.794 189.001 305.363 C 172.935 321.427 153.269 329.439 130.19 329.439 C 107.111 329.439 86.982 321.263 70.916 304.889 C 56.093 289.32 48.451 270.705 48.451 248.545 C 48.451 226.389 56.093 208.739 70.916 193.17 C 86.666 176.8 106.648 168.605 130.674 168.605" fill="#DEDDD5" style=""/>
  <path d="M 54.553 310.913 C 54.46 311.313 54.442 311.661 54.481 311.953 C 54.535 312.481 54.775 312.976 55.166 313.45 C 55.981 314.38 56.76 314.526 57.503 313.906 C 57.855 313.614 58.023 313.268 58.005 312.883 C 57.984 312.538 57.762 311.953 57.374 311.131 C 57.04 310.475 56.836 309.983 56.742 309.652 C 56.427 308.594 56.649 307.753 57.392 307.116 C 58.023 306.588 58.727 306.403 59.524 306.606 C 60.231 306.77 60.881 307.19 61.473 307.864 C 62.514 309.05 62.826 310.365 62.402 311.825 L 61.491 311.605 C 61.641 311.077 61.714 310.639 61.714 310.311 C 61.678 309.67 61.398 309.05 60.863 308.448 C 60.453 307.992 60.044 307.682 59.635 307.554 C 59.079 307.372 58.58 307.464 58.117 307.864 C 57.726 308.192 57.56 308.612 57.614 309.107 C 57.672 309.488 57.894 310.09 58.3 310.913 C 58.709 311.733 58.932 312.353 58.968 312.773 C 59.043 313.539 58.784 314.18 58.207 314.672 C 57.539 315.238 56.799 315.384 56.021 315.11 C 55.5 314.928 54.998 314.562 54.535 314.034 C 53.96 313.375 53.645 312.702 53.569 312.007 C 53.533 311.661 53.569 311.259 53.663 310.821 L 54.571 310.949 L 54.553 310.913 Z" style="fill: rgb(255, 255, 255);"/>
  <path d="M 47.949 305.729 C 47.338 304.889 47.134 303.959 47.317 302.936 C 47.54 301.732 48.246 300.71 49.47 299.869 C 50.694 299.032 51.918 298.701 53.142 298.921 C 54.183 299.103 54.998 299.616 55.63 300.492 C 56.243 301.348 56.466 302.299 56.297 303.3 C 56.075 304.507 55.35 305.527 54.126 306.385 C 52.902 307.226 51.678 307.554 50.454 307.336 C 49.434 307.172 48.598 306.624 47.967 305.747 L 47.949 305.729 Z M 48.634 305.255 C 49.212 306.057 49.973 306.46 50.935 306.46 C 51.771 306.46 52.643 306.168 53.533 305.548 C 54.664 304.761 55.296 303.884 55.443 302.901 C 55.536 302.206 55.371 301.568 54.944 300.966 C 54.387 300.179 53.627 299.78 52.679 299.762 C 51.825 299.762 50.953 300.054 50.063 300.674 C 49.1 301.33 48.505 302.078 48.246 302.936 C 48.006 303.759 48.135 304.543 48.655 305.255 L 48.634 305.255 Z" style="fill: rgb(255, 255, 255);"/>
  <path d="M 44.349 297.407 C 43.125 297.371 42.252 296.858 41.735 295.872 C 41.401 295.216 41.308 294.596 41.474 293.994 C 41.585 293.609 41.807 293.207 42.18 292.808 C 40.824 292.808 39.862 292.241 39.284 291.147 C 38.896 290.399 38.839 289.687 39.119 288.992 C 39.395 288.28 40.045 287.66 41.046 287.168 L 46.204 284.592 L 46.649 285.469 L 41.437 288.08 C 39.973 288.81 39.528 289.758 40.138 290.927 C 40.436 291.511 40.881 291.895 41.474 292.077 C 42.162 292.295 42.884 292.188 43.702 291.803 L 48.655 289.338 L 49.1 290.214 L 43.886 292.808 C 42.421 293.538 41.976 294.486 42.586 295.654 C 42.884 296.238 43.329 296.62 43.925 296.805 C 44.61 297.022 45.353 296.933 46.15 296.531 L 51.085 294.065 L 51.53 294.942 L 43.44 298.975 L 42.995 298.099 L 44.331 297.443 L 44.349 297.407 Z" style="fill: rgb(255, 255, 255);"/>
  <path d="M 35.242 280.997 C 34.905 280.014 34.98 279.063 35.444 278.133 C 36 277.039 36.983 276.252 38.394 275.796 C 39.804 275.34 41.086 275.376 42.198 275.924 C 43.125 276.38 43.774 277.128 44.108 278.133 C 44.442 279.137 44.388 280.085 43.925 281.015 C 43.365 282.112 42.385 282.896 40.956 283.352 C 39.546 283.808 38.283 283.773 37.17 283.224 C 36.244 282.768 35.594 282.02 35.242 280.997 Z M 36.039 280.741 C 36.355 281.674 36.965 282.276 37.874 282.551 C 38.674 282.786 39.6 282.75 40.619 282.404 C 41.919 281.984 42.791 281.308 43.218 280.395 C 43.516 279.775 43.534 279.099 43.311 278.407 C 42.995 277.495 42.403 276.893 41.492 276.619 C 40.677 276.362 39.768 276.416 38.728 276.747 C 37.615 277.11 36.818 277.659 36.334 278.389 C 35.853 279.12 35.759 279.886 36.039 280.723 L 36.039 280.741 Z" style="fill: rgb(255, 255, 255);"/>
  <path d="M 34.015 268.368 C 33.738 268.678 33.552 268.97 33.441 269.244 C 33.236 269.736 33.2 270.284 33.329 270.887 C 33.591 272.091 34.202 272.586 35.167 272.383 C 35.612 272.293 35.928 272.073 36.093 271.727 C 36.244 271.417 36.337 270.794 36.391 269.882 C 36.427 269.152 36.484 268.624 36.559 268.296 C 36.8 267.217 37.392 266.579 38.358 266.379 C 39.173 266.216 39.88 266.379 40.49 266.925 C 41.028 267.402 41.401 268.076 41.585 268.952 C 41.919 270.484 41.549 271.781 40.49 272.857 L 39.786 272.237 C 40.174 271.834 40.454 271.489 40.601 271.197 C 40.881 270.63 40.935 269.956 40.77 269.152 C 40.64 268.567 40.436 268.111 40.138 267.783 C 39.75 267.363 39.248 267.199 38.656 267.327 C 38.153 267.438 37.801 267.712 37.615 268.186 C 37.468 268.55 37.374 269.19 37.338 270.103 C 37.299 271.015 37.188 271.67 37.023 272.055 C 36.707 272.767 36.186 273.206 35.444 273.37 C 34.571 273.551 33.868 273.334 33.311 272.711 C 32.941 272.311 32.68 271.745 32.532 271.068 C 32.346 270.231 32.385 269.483 32.68 268.824 C 32.809 268.496 33.032 268.168 33.329 267.84 L 34.054 268.386 L 34.015 268.368 Z" style="fill: rgb(255, 255, 255);"/>
  <path d="M 39.786 259.076 L 26.761 259.971 L 26.689 259.005 L 32.253 258.62 C 31.068 258.093 30.418 257.181 30.325 255.884 C 30.25 254.99 30.49 254.277 31.011 253.768 C 31.549 253.237 32.364 252.927 33.48 252.855 L 39.284 252.453 L 39.359 253.419 L 33.48 253.821 C 31.865 253.932 31.104 254.662 31.197 256.03 C 31.251 256.814 31.549 257.434 32.087 257.911 C 32.608 258.367 33.275 258.567 34.09 258.513 L 39.675 258.129 L 39.75 259.097 L 39.786 259.076 Z" style="fill: rgb(255, 255, 255);"/>
  <path d="M 37.504 242.196 C 38.857 242.944 39.507 244.074 39.471 245.591 C 39.434 246.703 39.044 247.615 38.301 248.328 C 37.429 249.15 36.226 249.55 34.704 249.514 C 33.164 249.478 31.976 249.022 31.122 248.128 C 30.436 247.415 30.102 246.557 30.138 245.535 C 30.157 244.476 30.566 243.618 31.326 242.98 C 32.123 242.324 33.218 242.011 34.629 242.05 L 34.962 242.05 L 34.797 248.527 C 35.555 248.527 36.15 248.456 36.577 248.31 C 37.913 247.889 38.58 246.977 38.616 245.591 C 38.635 244.822 38.433 244.202 37.988 243.71 C 37.765 243.472 37.45 243.236 37.023 242.998 L 37.486 242.214 L 37.504 242.196 Z M 34.09 243.016 C 33.459 243.052 32.959 243.126 32.626 243.272 C 31.549 243.657 31.011 244.423 30.975 245.552 C 30.957 246.393 31.251 247.07 31.865 247.615 C 32.199 247.907 32.587 248.128 33.053 248.274 C 33.257 248.345 33.57 248.399 33.961 248.474 L 34.108 243.034 L 34.09 243.016 Z" style="fill: rgb(255, 255, 255);"/>
  <path d="M 39.729 239.349 L 30.713 238.345 L 30.824 237.376 L 32.421 237.558 C 31.344 236.884 30.863 236.008 30.975 234.967 C 31.029 234.494 31.197 234.055 31.474 233.689 L 32.274 234.219 C 32.051 234.529 31.94 234.839 31.883 235.185 C 31.829 235.751 31.976 236.246 32.328 236.702 C 32.848 237.34 33.681 237.704 34.851 237.832 L 39.84 238.381 L 39.729 239.349 Z" style="fill: rgb(255, 255, 255);"/>
  <path d="M 40.045 226.463 C 41.179 227.375 41.603 228.505 41.326 229.837 C 41.068 231.006 40.397 231.829 39.266 232.303 C 38.322 232.705 37.206 232.777 35.946 232.52 C 34.424 232.21 33.329 231.554 32.662 230.586 C 32.141 229.802 31.976 228.925 32.181 227.977 C 32.475 226.627 33.329 225.769 34.776 225.384 L 29.062 224.198 L 29.266 223.25 L 42.03 225.915 L 41.825 226.863 L 40.045 226.499 L 40.045 226.463 Z M 33.053 227.977 C 32.83 229 33.107 229.837 33.85 230.496 C 34.406 230.988 35.185 231.334 36.204 231.554 C 37.597 231.847 38.692 231.718 39.471 231.17 C 40.009 230.806 40.361 230.276 40.508 229.566 C 40.677 228.779 40.547 228.088 40.138 227.465 C 39.6 226.663 38.692 226.132 37.392 225.861 C 36.114 225.587 35.056 225.715 34.238 226.243 C 33.609 226.645 33.2 227.229 33.053 227.977 Z" style="fill: rgb(255, 255, 255);"/>
  <path d="M 43.386 215.494 C 44.46 216.588 44.74 217.866 44.237 219.306 C 43.867 220.367 43.218 221.133 42.292 221.572 C 41.215 222.099 39.952 222.135 38.505 221.643 C 37.041 221.151 36.039 220.367 35.501 219.27 C 35.056 218.394 34.999 217.464 35.332 216.495 C 35.687 215.494 36.316 214.781 37.245 214.397 C 38.21 213.997 39.341 214.033 40.677 214.471 L 40.992 214.582 L 38.878 220.695 C 39.618 220.913 40.195 221.023 40.64 221.005 C 42.03 220.987 42.959 220.311 43.422 218.996 C 43.663 218.266 43.663 217.61 43.386 217.026 C 43.254 216.734 43.013 216.406 42.68 216.06 L 43.365 215.437 L 43.386 215.494 Z M 39.88 215.273 C 39.266 215.127 38.767 215.056 38.394 215.073 C 37.263 215.127 36.502 215.693 36.132 216.77 C 35.853 217.556 35.928 218.305 36.355 218.996 C 36.595 219.381 36.893 219.691 37.281 219.965 C 37.468 220.093 37.726 220.239 38.078 220.421 L 39.862 215.273 L 39.88 215.273 Z" style="fill: rgb(255, 255, 255);"/>
  <path d="M 35.02 207.973 C 35.092 207.809 35.221 207.681 35.408 207.609 C 35.594 207.535 35.759 207.535 35.946 207.609 C 36.132 207.681 36.262 207.809 36.334 207.991 C 36.409 208.173 36.409 208.337 36.334 208.522 C 36.262 208.686 36.132 208.814 35.946 208.885 C 35.759 208.96 35.576 208.96 35.389 208.885 C 35.203 208.814 35.092 208.686 35.02 208.504 C 34.944 208.319 34.962 208.137 35.02 207.973 Z M 46.409 213.395 L 38.117 209.836 L 38.505 208.942 L 46.8 212.501 L 46.409 213.395 Z" style="fill: rgb(255, 255, 255);"/>
  <path d="M 48.282 209.359 L 40.231 205.272 L 40.677 204.414 L 42.105 205.144 C 41.344 204.122 41.215 203.156 41.696 202.205 C 41.919 201.785 42.234 201.439 42.607 201.183 L 43.164 201.949 C 42.848 202.169 42.607 202.426 42.457 202.718 C 42.198 203.21 42.159 203.74 42.328 204.286 C 42.568 205.052 43.218 205.711 44.276 206.238 L 48.727 208.504 L 48.282 209.359 Z" style="fill: rgb(255, 255, 255);"/>
  <path d="M 45.482 195.91 C 46.057 195.033 46.854 194.503 47.873 194.267 C 49.1 194.011 50.324 194.267 51.567 195.051 C 52.83 195.853 53.588 196.84 53.849 198.044 C 54.072 199.048 53.885 199.996 53.311 200.891 C 52.736 201.785 51.936 202.333 50.917 202.554 C 49.693 202.807 48.469 202.554 47.188 201.749 C 45.946 200.965 45.167 199.961 44.905 198.774 C 44.682 197.77 44.869 196.822 45.464 195.91 L 45.482 195.91 Z M 46.204 196.366 C 45.666 197.203 45.576 198.044 45.928 198.92 C 46.243 199.686 46.854 200.363 47.762 200.929 C 48.914 201.657 49.991 201.895 50.974 201.657 C 51.66 201.493 52.198 201.093 52.604 200.47 C 53.142 199.651 53.236 198.828 52.884 197.955 C 52.568 197.168 51.957 196.494 51.046 195.928 C 50.063 195.308 49.136 195.033 48.246 195.123 C 47.374 195.215 46.706 195.635 46.222 196.366 L 46.204 196.366 Z" style="fill: rgb(255, 255, 255);"/>
  <path d="M 54.628 187.039 C 54.201 187.039 53.849 187.074 53.569 187.149 C 53.052 187.313 52.607 187.623 52.216 188.097 C 51.437 189.066 51.437 189.832 52.216 190.434 C 52.568 190.708 52.941 190.815 53.329 190.726 C 53.663 190.634 54.219 190.324 54.962 189.775 C 55.554 189.337 55.999 189.048 56.315 188.902 C 57.317 188.407 58.207 188.464 58.968 189.066 C 59.617 189.575 59.915 190.234 59.879 191.036 C 59.84 191.748 59.545 192.44 58.989 193.152 C 58.005 194.375 56.742 194.923 55.221 194.777 L 55.26 193.847 C 55.816 193.901 56.261 193.883 56.595 193.811 C 57.227 193.665 57.801 193.281 58.3 192.643 C 58.691 192.169 58.914 191.71 58.968 191.292 C 59.061 190.726 58.857 190.252 58.375 189.868 C 57.966 189.558 57.521 189.465 57.058 189.611 C 56.688 189.721 56.132 190.067 55.389 190.616 C 54.646 191.164 54.072 191.492 53.645 191.62 C 52.884 191.838 52.216 191.71 51.624 191.236 C 50.935 190.69 50.64 190.014 50.788 189.191 C 50.881 188.645 51.139 188.097 51.585 187.548 C 52.123 186.875 52.736 186.437 53.422 186.237 C 53.756 186.127 54.165 186.091 54.61 186.109 L 54.646 187.003 L 54.628 187.039 Z" style="fill: rgb(255, 255, 255);"/>
  <path d="M 68.745 180.084 C 69.154 181.471 68.838 182.639 67.837 183.572 C 66.965 184.392 65.927 184.684 64.721 184.445 C 63.699 184.246 62.754 183.679 61.864 182.767 C 60.787 181.655 60.267 180.505 60.285 179.336 C 60.306 178.406 60.676 177.584 61.419 176.91 C 62.438 175.959 63.644 175.723 65.055 176.215 L 61.046 172.036 L 61.771 171.36 L 70.73 180.704 L 70.008 181.381 L 68.763 180.084 L 68.745 180.084 Z M 62.105 177.402 C 61.344 178.114 61.064 178.952 61.308 179.92 C 61.491 180.633 61.936 181.363 62.643 182.111 C 63.626 183.134 64.592 183.644 65.536 183.626 C 66.186 183.626 66.778 183.387 67.316 182.877 C 67.912 182.329 68.207 181.673 68.228 180.943 C 68.246 179.992 67.801 179.044 66.889 178.096 C 65.999 177.163 65.055 176.671 64.071 176.636 C 63.311 176.618 62.643 176.871 62.087 177.384 L 62.105 177.402 Z" style="fill: rgb(255, 255, 255);"/>
  <path d="M 77.818 172.895 C 78.059 174.391 77.578 175.595 76.333 176.525 C 75.425 177.202 74.459 177.455 73.422 177.309 C 72.216 177.145 71.157 176.472 70.249 175.267 C 69.322 174.06 68.95 172.838 69.136 171.652 C 69.283 170.686 69.768 169.881 70.601 169.279 C 71.473 168.641 72.402 168.42 73.385 168.605 C 74.405 168.805 75.331 169.461 76.167 170.576 L 76.372 170.85 L 71.121 174.719 C 71.602 175.303 72.029 175.723 72.402 175.959 C 73.569 176.725 74.7 176.671 75.834 175.852 C 76.465 175.393 76.817 174.847 76.946 174.206 C 77 173.878 77 173.497 76.928 173.02 L 77.855 172.895 L 77.818 172.895 Z M 75.055 170.775 C 74.628 170.301 74.255 169.973 73.942 169.792 C 72.976 169.207 72.029 169.261 71.103 169.938 C 70.417 170.447 70.062 171.085 70.008 171.89 C 69.99 172.328 70.044 172.766 70.213 173.205 C 70.285 173.404 70.417 173.679 70.619 174.024 L 75.055 170.757 L 75.055 170.775 Z" style="fill: rgb(255, 255, 255);"/>
  <path d="M 84.757 170.85 L 80.582 162.927 L 81.454 162.489 L 82.158 163.842 C 82.197 162.581 82.79 161.651 83.921 161.067 C 84.757 160.646 85.536 160.575 86.26 160.828 C 87 161.102 87.614 161.723 88.134 162.691 L 90.805 167.747 L 89.932 168.185 L 87.244 163.094 C 86.483 161.651 85.442 161.266 84.125 161.925 C 83.439 162.271 82.994 162.763 82.79 163.386 C 82.567 164.059 82.66 164.808 83.087 165.592 L 85.611 170.376 L 84.739 170.814 L 84.757 170.85 Z" style="fill: rgb(255, 255, 255);"/>
  <path d="M 94.032 156.706 C 95.015 156.339 95.998 156.375 96.946 156.813 C 98.077 157.326 98.913 158.274 99.412 159.642 C 99.932 161.031 99.932 162.271 99.412 163.386 C 98.967 164.316 98.245 164.972 97.222 165.338 C 96.221 165.702 95.238 165.684 94.293 165.246 C 93.159 164.736 92.326 163.785 91.806 162.399 C 91.286 161.031 91.286 159.77 91.806 158.658 C 92.233 157.725 92.976 157.069 94.014 156.685 L 94.032 156.706 Z M 94.329 157.472 C 93.382 157.818 92.789 158.438 92.549 159.35 C 92.326 160.155 92.42 161.049 92.789 162.053 C 93.271 163.329 93.977 164.152 94.922 164.551 C 95.571 164.826 96.26 164.826 96.964 164.551 C 97.89 164.223 98.468 163.603 98.726 162.709 C 98.949 161.907 98.874 160.992 98.504 159.991 C 98.095 158.912 97.502 158.146 96.741 157.689 C 95.98 157.251 95.183 157.18 94.347 157.49 L 94.329 157.472 Z" style="fill: rgb(255, 255, 255);"/>
  <path d="M 106.816 155.081 C 106.482 154.807 106.185 154.622 105.905 154.515 C 105.406 154.312 104.849 154.294 104.236 154.44 C 103.03 154.732 102.531 155.352 102.771 156.303 C 102.882 156.742 103.123 157.034 103.475 157.198 C 103.791 157.344 104.422 157.415 105.349 157.433 C 106.091 157.433 106.63 157.49 106.982 157.543 C 108.076 157.743 108.744 158.327 108.985 159.26 C 109.189 160.044 109.024 160.757 108.485 161.377 C 108.022 161.925 107.352 162.307 106.461 162.509 C 104.922 162.891 103.586 162.563 102.455 161.541 L 103.066 160.828 C 103.475 161.213 103.848 161.469 104.143 161.594 C 104.738 161.851 105.424 161.886 106.221 161.687 C 106.816 161.541 107.279 161.323 107.595 161.013 C 108.022 160.611 108.152 160.116 108.001 159.535 C 107.872 159.04 107.574 158.712 107.111 158.548 C 106.741 158.42 106.091 158.348 105.165 158.348 C 104.236 158.348 103.568 158.256 103.177 158.092 C 102.437 157.8 101.992 157.308 101.806 156.578 C 101.583 155.737 101.806 155.025 102.398 154.44 C 102.807 154.059 103.346 153.785 104.049 153.621 C 104.903 153.418 105.664 153.436 106.332 153.692 C 106.666 153.82 107.018 154.02 107.352 154.312 L 106.834 155.042 L 106.816 155.081 Z" style="fill: rgb(255, 255, 255);"/>
  <path d="M 116.536 153.4 C 116.239 153.108 115.944 152.908 115.682 152.78 C 115.201 152.542 114.645 152.47 114.031 152.562 C 112.789 152.744 112.251 153.311 112.398 154.259 C 112.473 154.697 112.678 155.025 113.012 155.206 C 113.309 155.373 113.938 155.516 114.867 155.627 C 115.589 155.701 116.127 155.791 116.479 155.901 C 117.556 156.211 118.169 156.849 118.299 157.8 C 118.428 158.602 118.187 159.296 117.595 159.845 C 117.075 160.336 116.368 160.646 115.478 160.775 C 113.902 160.992 112.603 160.554 111.583 159.424 L 112.251 158.786 C 112.621 159.204 112.954 159.496 113.234 159.66 C 113.79 159.97 114.476 160.08 115.294 159.952 C 115.905 159.862 116.368 159.681 116.723 159.424 C 117.186 159.058 117.372 158.584 117.279 157.982 C 117.204 157.472 116.945 157.123 116.479 156.905 C 116.127 156.742 115.499 156.613 114.569 156.503 C 113.643 156.414 112.993 156.268 112.621 156.065 C 111.917 155.719 111.508 155.171 111.397 154.422 C 111.267 153.564 111.547 152.872 112.194 152.36 C 112.642 152.014 113.216 151.793 113.92 151.704 C 114.792 151.576 115.535 151.668 116.184 151.996 C 116.5 152.142 116.834 152.378 117.15 152.708 L 116.554 153.4 L 116.536 153.4 Z" style="fill: rgb(255, 255, 255);"/>
  <path d="M 126.554 158.327 C 125.886 159.332 124.96 159.88 123.754 159.934 C 122.882 159.991 122.157 159.77 121.601 159.278 C 121.138 158.876 120.879 158.348 120.84 157.689 C 120.768 156.432 121.453 155.555 122.882 155.081 C 123.679 154.825 124.828 154.604 126.313 154.44 L 126.256 153.564 C 126.184 152.16 125.498 151.483 124.199 151.558 C 123.234 151.612 122.344 152.05 121.526 152.908 L 120.879 152.306 C 121.769 151.319 122.864 150.792 124.142 150.735 C 125.125 150.682 125.886 150.92 126.425 151.448 C 126.906 151.922 127.186 152.634 127.24 153.546 L 127.483 157.91 C 127.501 158.274 127.613 158.548 127.835 158.694 C 127.983 158.804 128.262 158.84 128.668 158.84 L 128.707 159.624 C 128.539 159.642 128.41 159.66 128.28 159.66 C 127.351 159.716 126.777 159.278 126.536 158.348 L 126.554 158.327 Z M 126.368 155.189 C 125.387 155.263 124.515 155.391 123.808 155.591 C 122.455 155.955 121.805 156.613 121.859 157.6 C 121.88 158.056 122.046 158.402 122.362 158.676 C 122.714 158.986 123.216 159.132 123.847 159.096 C 124.533 159.058 125.144 158.84 125.646 158.42 C 125.832 158.256 125.998 158.074 126.127 157.871 C 126.368 157.508 126.461 157.162 126.443 156.831 L 126.35 155.206 L 126.368 155.189 Z" style="fill: rgb(255, 255, 255);"/>
  <path d="M 136.461 152.708 C 136.22 152.36 135.979 152.106 135.739 151.922 C 135.294 151.594 134.773 151.43 134.16 151.412 C 132.918 151.376 132.268 151.832 132.25 152.798 C 132.25 153.254 132.379 153.603 132.677 153.838 C 132.936 154.059 133.531 154.294 134.421 154.569 C 135.125 154.768 135.627 154.953 135.961 155.117 C 136.963 155.609 137.444 156.339 137.408 157.308 C 137.39 158.128 137.017 158.748 136.349 159.204 C 135.757 159.606 134.996 159.788 134.088 159.752 C 132.491 159.699 131.303 159.04 130.506 157.764 L 131.285 157.251 C 131.582 157.725 131.859 158.074 132.103 158.274 C 132.602 158.676 133.252 158.894 134.067 158.932 C 134.68 158.95 135.182 158.858 135.57 158.658 C 136.091 158.384 136.349 157.946 136.367 157.344 C 136.367 156.831 136.184 156.432 135.775 156.157 C 135.459 155.937 134.849 155.683 133.955 155.427 C 133.065 155.171 132.455 154.914 132.103 154.661 C 131.471 154.187 131.173 153.582 131.192 152.834 C 131.21 151.96 131.601 151.337 132.361 150.938 C 132.864 150.682 133.456 150.571 134.178 150.589 C 135.05 150.607 135.775 150.845 136.349 151.266 C 136.629 151.465 136.906 151.758 137.167 152.142 L 136.461 152.708 Z" style="fill: rgb(255, 255, 255);"/>
  <path d="M 149.299 159.934 C 148.427 160.775 147.39 161.102 146.202 160.903 C 145.329 160.757 144.68 160.39 144.253 159.788 C 143.883 159.296 143.754 158.712 143.865 158.074 C 144.087 156.831 144.939 156.122 146.442 155.975 C 147.278 155.883 148.445 155.937 149.931 156.101 L 150.078 155.227 C 150.319 153.838 149.802 153.036 148.52 152.816 C 147.573 152.652 146.611 152.908 145.627 153.546 L 145.125 152.816 C 146.22 152.05 147.408 151.775 148.668 151.996 C 149.633 152.16 150.319 152.542 150.728 153.182 C 151.098 153.767 151.209 154.497 151.044 155.409 L 150.301 159.716 C 150.247 160.08 150.301 160.354 150.469 160.554 C 150.58 160.682 150.857 160.792 151.266 160.885 L 151.137 161.651 C 150.968 161.651 150.821 161.615 150.71 161.594 C 149.78 161.448 149.317 160.885 149.281 159.934 L 149.299 159.934 Z M 149.82 156.831 C 148.836 156.685 147.982 156.631 147.239 156.667 C 145.85 156.724 145.071 157.233 144.902 158.202 C 144.827 158.64 144.902 159.022 145.143 159.368 C 145.423 159.752 145.868 160.009 146.499 160.119 C 147.185 160.226 147.817 160.137 148.391 159.845 C 148.614 159.734 148.818 159.588 148.984 159.406 C 149.299 159.096 149.486 158.786 149.54 158.456 L 149.82 156.849 L 149.82 156.831 Z" style="fill: rgb(255, 255, 255);"/>
  <path d="M 155.886 163.931 C 156.051 163.931 156.201 163.949 156.313 163.988 C 156.535 164.042 156.722 164.152 156.869 164.298 C 157.185 164.608 157.278 164.989 157.146 165.466 C 156.998 165.994 156.646 166.304 156.072 166.379 C 155.828 166.414 155.552 166.379 155.272 166.304 C 154.68 166.14 154.235 165.776 153.901 165.21 L 154.511 164.918 C 154.716 165.3 155.013 165.556 155.404 165.666 C 155.904 165.794 156.201 165.666 156.331 165.246 C 156.442 164.826 156.295 164.572 155.85 164.444 C 155.645 164.387 155.44 164.405 155.272 164.48 L 154.902 164.024 L 156.126 163.001 C 155.516 162.709 155.031 162.363 154.716 161.979 C 154.328 161.505 154.066 160.956 153.919 160.336 C 153.753 159.535 153.789 158.658 154.066 157.707 C 154.493 156.247 155.236 155.227 156.295 154.643 C 157.167 154.166 158.111 154.059 159.152 154.351 C 160.042 154.586 160.71 155.042 161.173 155.719 C 161.413 156.065 161.618 156.503 161.765 157.069 L 160.875 157.344 C 160.71 156.777 160.523 156.357 160.337 156.083 C 160.024 155.645 159.558 155.335 158.947 155.171 C 157.907 154.879 156.998 155.099 156.256 155.829 C 155.717 156.357 155.311 157.087 155.05 158.017 C 154.791 158.95 154.734 159.77 154.92 160.482 C 155.182 161.487 155.828 162.143 156.905 162.435 C 157.648 162.635 158.316 162.581 158.929 162.253 C 159.206 162.107 159.54 161.851 159.913 161.487 L 160.541 162.161 C 160.042 162.635 159.522 162.966 159.001 163.165 C 158.352 163.404 157.591 163.439 156.701 163.24 L 155.85 163.949 L 155.886 163.931 Z" style="fill: rgb(255, 255, 255);"/>
  <path d="M 169.076 157.746 C 170.042 158.146 170.727 158.822 171.136 159.77 C 171.618 160.903 171.563 162.143 171.004 163.493 C 170.43 164.843 169.575 165.776 168.427 166.233 C 167.461 166.632 166.478 166.614 165.476 166.233 C 164.493 165.83 163.789 165.153 163.38 164.206 C 162.899 163.073 162.953 161.833 163.528 160.465 C 164.105 159.114 164.956 158.202 166.108 157.725 C 167.073 157.326 168.057 157.344 169.076 157.746 Z M 168.742 158.512 C 167.813 158.128 166.944 158.202 166.144 158.694 C 165.44 159.132 164.884 159.845 164.457 160.828 C 163.937 162.089 163.882 163.165 164.288 164.059 C 164.586 164.679 165.067 165.136 165.774 165.428 C 166.682 165.794 167.536 165.738 168.333 165.246 C 169.058 164.808 169.615 164.095 170.042 163.112 C 170.487 162.053 170.58 161.102 170.336 160.262 C 170.096 159.442 169.557 158.858 168.724 158.53 L 168.742 158.512 Z M 168.204 155.499 L 167.573 155.153 C 167.852 154.697 168.168 154.387 168.52 154.223 C 168.854 154.077 169.188 154.059 169.485 154.187 C 169.744 154.294 170.06 154.586 170.412 155.06 C 170.691 155.427 170.893 155.645 171.061 155.701 C 171.377 155.829 171.675 155.645 171.987 155.153 L 172.619 155.499 C 172.342 155.975 172.027 156.285 171.693 156.432 C 171.359 156.578 171.025 156.595 170.709 156.467 C 170.448 156.357 170.135 156.065 169.78 155.591 C 169.503 155.227 169.299 155.007 169.13 154.953 C 168.818 154.825 168.502 155.007 168.222 155.499 L 168.204 155.499 Z" style="fill: rgb(255, 255, 255);"/>
  <path d="M 178.89 170.629 C 177.59 171.452 176.273 171.488 174.92 170.74 C 173.918 170.191 173.287 169.425 173.01 168.441 C 172.676 167.291 172.881 166.069 173.62 164.754 C 174.381 163.439 175.347 162.617 176.535 162.289 C 177.5 162.033 178.426 162.143 179.335 162.635 C 180.282 163.165 180.856 163.913 181.079 164.861 C 181.301 165.866 181.079 166.963 180.375 168.167 L 180.207 168.459 L 174.475 165.3 C 174.123 165.958 173.9 166.507 173.843 166.942 C 173.62 168.295 174.105 169.297 175.347 169.973 C 176.032 170.355 176.682 170.465 177.314 170.301 C 177.629 170.23 177.999 170.066 178.408 169.81 L 178.89 170.576 L 178.89 170.629 Z M 179.744 167.273 C 180.002 166.706 180.171 166.233 180.207 165.884 C 180.357 164.772 179.93 163.949 178.929 163.404 C 178.186 163.001 177.425 162.927 176.664 163.219 C 176.237 163.386 175.867 163.621 175.533 163.931 C 175.383 164.077 175.178 164.316 174.92 164.626 L 179.744 167.291 L 179.744 167.273 Z" style="fill: rgb(255, 255, 255);"/>
  <path d="M 188.742 171.106 C 188.742 170.686 188.667 170.337 188.573 170.066 C 188.39 169.553 188.056 169.133 187.554 168.769 C 186.534 168.057 185.734 168.093 185.178 168.879 C 184.919 169.243 184.826 169.607 184.937 169.973 C 185.031 170.301 185.383 170.832 185.978 171.541 C 186.441 172.09 186.775 172.528 186.94 172.838 C 187.497 173.789 187.497 174.665 186.922 175.449 C 186.441 176.105 185.792 176.454 184.977 176.454 C 184.252 176.454 183.527 176.197 182.787 175.685 C 181.488 174.773 180.874 173.568 180.932 172.054 L 181.876 172.054 C 181.858 172.603 181.876 173.041 181.969 173.369 C 182.156 173.989 182.583 174.519 183.25 174.993 C 183.75 175.339 184.216 175.539 184.661 175.577 C 185.253 175.631 185.716 175.413 186.068 174.919 C 186.366 174.498 186.441 174.06 186.255 173.604 C 186.107 173.24 185.755 172.71 185.16 172.018 C 184.568 171.324 184.195 170.757 184.065 170.355 C 183.807 169.628 183.9 168.951 184.345 168.331 C 184.865 167.619 185.533 167.309 186.384 167.401 C 186.94 167.455 187.518 167.693 188.092 168.093 C 188.796 168.587 189.28 169.169 189.521 169.845 C 189.632 170.173 189.707 170.576 189.707 171.014 L 188.796 171.106 L 188.742 171.106 Z" style="fill: rgb(255, 255, 255);"/>
  <path d="M 110.822 195.397 C 126.389 195.397 139.486 200.929 150.114 211.86 C 160.135 222.302 165.218 234.657 165.218 248.894 C 165.218 263.914 160.135 276.434 149.802 286.876 C 139.17 297.642 126.073 303.029 110.506 303.029 C 94.943 303.029 81.695 297.479 70.916 286.566 C 60.899 276.124 55.816 263.622 55.816 248.912 C 55.816 234.201 60.899 222.32 70.916 211.878 C 81.397 200.965 94.792 195.415 110.822 195.415" fill="#C6C5BA" style=""/>
  <path d="M 90.119 222.409 C 97.911 222.409 104.458 225.277 109.763 230.714 C 114.756 235.826 117.24 241.904 117.24 249.076 C 117.24 256.248 114.756 262.82 109.598 267.93 C 104.293 273.37 97.743 276.07 89.95 276.07 C 82.158 276.07 75.611 273.352 70.155 267.766 C 65.166 262.656 62.679 256.432 62.679 249.076 C 62.679 241.719 65.166 235.826 70.155 230.714 C 75.461 225.277 82.158 222.409 90.101 222.409" fill="#D20A11" style=""/>
  <path d="M 90.787 204.778 C 93.141 204.778 94.979 205.472 96.483 207.043 C 97.983 208.611 98.819 210.528 98.819 212.608 C 98.819 214.689 97.983 216.606 96.483 218.176 C 94.979 219.744 93.123 220.439 90.787 220.439 C 88.615 220.439 86.594 219.744 85.09 217.995 C 83.587 216.606 82.901 214.689 82.901 212.59 C 82.901 210.492 83.569 208.593 85.09 207.025 C 86.594 205.454 88.615 204.76 90.787 204.76" fill="#D20A11" style=""/>
</svg>